<svg xmlns="http://www.w3.org/2000/svg" viewBox="0 0 605.67 455"><defs><style>.a,.ak,.b{fill:none}.a{clip-rule:evenodd}.f{fill:#fee5b4;opacity:.5}.o{fill:#565656}.al,.p{fill:#fff}.q{fill:#333}.r{fill:#666}.s{fill:#f4f4f4}.w{opacity:.02}.x{fill:#fec051}.ad{fill:#feba23}.ae{fill:#444}.af{fill:#7c7c7c}.ag{fill:#02b3e4}.ah{fill:#fdd000}.ai{fill:#ff5483}.aj{fill:#02ccba}.ak{stroke:#feba23;stroke-miterlimit:10}.al{opacity:.09}.an{fill:#a4d750}.aq{fill:#95bc4a}.ar{fill:#eaeaea}</style><clipPath id="a"><path class="a" d="M577.09 129.3H353.33q2.94-13.48 15.5-13.48c12.55 0 26.17.37 33.92-6.62s14.51-22.2 26.44-25 28.11 1.18 36-6.27S483.13 64 492.45 64s14.88 4.37 18.73 9.15a18.9 18.9 0 0 1 4.21 11.06q-1.9-4.85 8.62 0c10.52 4.85 16.36 8.07 21.44 16.53s-.49 11.4 6 15.08q6.4 3.67 25.64 13.48z"/></clipPath><clipPath id="b"><path class="b" d="M-707.26-182.99h1440v1030h-1440z"/></clipPath><clipPath id="c"><path class="a" d="M6.73 103.88h220.74q-2.9-13.48-15.29-13.48c-12.38 0-25.82.37-33.46-6.62s-14.31-22.2-26.08-25-27.73 1.22-35.54-6.26-17.67-13.95-26.87-13.95-14.68 4.37-18.48 9.15a19.05 19.05 0 0 0-4.15 11.07q1.88-4.85-8.5 0C48.72 63.64 43 66.86 38 75.32s.48 11.4-5.88 15.08q-6.41 3.67-25.39 13.48z"/></clipPath><clipPath id="d"><path class="b" d="M-638.27-127h1440V903h-1440z"/></clipPath><clipPath id="e"><path class="a" d="M604 248H475.13q1.7-8.49 8.93-8.49c7.23 0 15.08.23 19.54-4.17s8.36-14 15.23-15.74 16.19.74 20.75-4 10.32-8.78 15.69-8.78 8.57 2.75 10.79 5.77a12.57 12.57 0 0 1 2.42 7q-1.1-3.06 5 0c6.06 3.06 9.43 5.08 12.35 10.41s-.28 7.18 3.43 9.5Q593 241.79 604 248z"/></clipPath><clipPath id="f"><path class="b" d="M-632.77-160.99h1440v1030h-1440z"/></clipPath><clipPath id="g"><path class="a" d="M128.35 233.86H2.47q1.66-9.12 8.72-9.12c7.06 0 14.72.25 19.08-4.48s8.16-15 14.88-16.89 15.81.8 20.26-4.24 10.08-9.43 15.33-9.43 8.37 3 10.54 6.19a14.37 14.37 0 0 1 2.37 7.48q-1.07-3.28 4.85 0c5.92 3.28 9.21 5.46 12.06 11.17s-.27 7.71 3.35 10.2q3.62 2.49 14.44 9.12z"/></clipPath><clipPath id="h"><path class="b" d="M-679.76-159.99h1440v1030h-1440z"/></clipPath><clipPath id="i"><ellipse class="b" cx="1047.47" cy="251.54" rx="275.72" ry="217.5"/></clipPath></defs><ellipse cx="299.44" cy="235.27" rx="277.61" ry="216.45" fill="#fff9e9"/><g clip-path="url(#a)"><g clip-path="url(#b)"><path class="f" d="M348.33 58.99h233.75v75.31H348.33z"/></g></g><g clip-path="url(#c)"><g clip-path="url(#d)"><path class="f" d="M1.73 33.57h230.74v75.31H1.73z"/></g></g><g clip-path="url(#e)"><g clip-path="url(#f)"><path class="f" d="M470.13 201.83h138.91v51.14H470.13z"/></g></g><g clip-path="url(#g)"><g clip-path="url(#h)"><path class="f" d="M-2.53 184.7h135.88v54.16H-2.53z"/></g></g><path d="M47.08 322.7C89.92 399 186.71 452.18 299.27 452.18c111.64 0 207.77-52.34 251.14-127.61-56.53-46.76-148.69-77.2-252.81-77.2-102.72 0-193.81 29.63-250.52 75.33z" opacity=".45" fill="#fee5b4"/><path fill="#ed8131" d="M169.28 206.46l128.85-46.59 132.2 46.83v82.97h-263V206.7l1.95-.24z"/><path class="o" d="M386.407 167.202l-9.417 114.785-155.268-12.738 9.417-114.785z"/><path class="p" d="M243.135 164.89l129.724 10.642-7.874 95.978-129.724-10.643z"/><path class="q" d="M276.83 192.33l.79-9.58 3.58.25a5.31 5.31 0 0 1 2 .55 4.19 4.19 0 0 1 2.19 2.74 5.6 5.6 0 0 1 .15 1.88 5.53 5.53 0 0 1-.5 1.95 4.27 4.27 0 0 1-1.09 1.43 4.34 4.34 0 0 1-1.59.85 5.39 5.39 0 0 1-2 .18zm6.49-4.3a3.74 3.74 0 0 0-.07-1.17 2.61 2.61 0 0 0-.42-.94 2.16 2.16 0 0 0-.75-.65 2.69 2.69 0 0 0-1-.29l-1.36-.11-.47 5.7 1.36.11a2.58 2.58 0 0 0 1.1-.13 2.2 2.2 0 0 0 .84-.54 2.74 2.74 0 0 0 .56-.86 3.7 3.7 0 0 0 .22-1.15zM286.51 193.13l.79-9.58 2.21.18-.79 9.58zM290.56 193.46l.79-9.58 4.09.34a2.82 2.82 0 0 1 1.24.39 3.26 3.26 0 0 1 .92.82 3.56 3.56 0 0 1 .56 1.09 3.11 3.11 0 0 1 .14 1.19 3.38 3.38 0 0 1-.32 1.2 3.48 3.48 0 0 1-.71 1 2.93 2.93 0 0 1-1 .65 2.89 2.89 0 0 1-1.28.17l-1.94-.16-.25 3.09zm2.63-4.84l1.81.15a.86.86 0 0 0 .7-.28 1.5 1.5 0 0 0 .36-1 1.71 1.71 0 0 0 0-.59 1.19 1.19 0 0 0-.2-.42.91.91 0 0 0-.32-.26 1 1 0 0 0-.37-.11l-1.77-.11zM298.93 194.15l.79-9.58 2.21.18-.63 7.64 4.64.38-.16 1.94zM310.6 195.18a4.12 4.12 0 0 1-1.83-.57 4.7 4.7 0 0 1-1.35-1.22 5 5 0 0 1-.8-1.64 5.1 5.1 0 0 1-.18-1.84 5 5 0 0 1 1.58-3.26 4.67 4.67 0 0 1 1.55-.95 4.27 4.27 0 0 1 1.87-.25 4.12 4.12 0 0 1 1.83.57 4.65 4.65 0 0 1 1.35 1.22 5 5 0 0 1 .8 1.64 5.13 5.13 0 0 1 .18 1.81A5.07 5.07 0 0 1 314 194a4.7 4.7 0 0 1-1.54 1 4.22 4.22 0 0 1-1.86.18zm-1.91-5a3.76 3.76 0 0 0 .07 1.09 3.1 3.1 0 0 0 .37 1 2.19 2.19 0 0 0 .68.71 2 2 0 0 0 1 .33 2 2 0 0 0 1-.17 2.34 2.34 0 0 0 .78-.61 3 3 0 0 0 .51-.9 4 4 0 0 0 .23-1 3.73 3.73 0 0 0-.07-1.09 2.94 2.94 0 0 0-.38-1 2.25 2.25 0 0 0-.68-.69 2 2 0 0 0-1-.32 2 2 0 0 0-1 .17 2.29 2.29 0 0 0-.78.6 3 3 0 0 0-.51.89 3.84 3.84 0 0 0-.22.95zM324 196.21l.47-5.74-2.42 4-1.19-.1-1.69-4.37-.47 5.74-2.21-.18.79-9.58 2.4.2 2.07 5.21 2.91-4.8 2.39.2-.79 9.58zM327.15 196.46l4.47-9.28 1.8.15 2.88 9.88-2.3-.21-.57-2.21-3-.24-.9 2.09zm5.17-6.86l-1.44 3.47 2.25.19z"/><path class="r" d="M250.74 181.34l.09-1.12a7.47 7.47 0 0 0 8-6.83l1.12.09a8.6 8.6 0 0 1-9.21 7.86zM356.82 186.48a8.54 8.54 0 0 1-1.22-5.15l1.12.09a7.47 7.47 0 0 0 6.83 8l-.09 1.12a8.58 8.58 0 0 1-6.64-4.06zM245.6 244l.09-1.12a8.3 8.3 0 0 1 5.85 3.16 9.3 9.3 0 0 1 2 6.6l-1.12-.09a8.18 8.18 0 0 0-1.73-5.8 7.18 7.18 0 0 0-5.09-2.75zM349 260.42a9.31 9.31 0 0 1 3-6.19 8.3 8.3 0 0 1 6.28-2.17l-.09 1.12a7.18 7.18 0 0 0-5.44 1.88 8.19 8.19 0 0 0-2.65 5.44z"/><path class="r" d="M258.86 173.708l.091-1.126 97.856 7.976-.092 1.126zM252.735 252.505l.092-1.126 96.735 7.936-.092 1.126zM245.622 243.568l5.183-63.178 1.126.092-5.183 63.178zM357.162 252.73l5.183-63.178 1.126.093-5.183 63.177z"/><path class="s" d="M264.706 196.756l83.48 6.848-.135 1.635-83.48-6.849zM284.632 202.168l42.996 3.528-.134 1.634-42.996-3.527zM263.484 211.626l83.48 6.849-.134 1.634-83.48-6.848zM259.035 230.077l22.276 1.827-.134 1.635-22.276-1.827zM263.482 233.752l12.827 1.052-.134 1.634-12.827-1.052zM262.922 240.503l12.827 1.052-.134 1.635-12.827-1.052zM266.457 237.384l6.338.52-.134 1.634-6.338-.52zM324.893 235.484l22.276 1.827-.135 1.635-22.275-1.828zM329.35 239.148l12.827 1.053-.134 1.634-12.827-1.052zM328.79 245.9l12.827 1.052-.134 1.635-12.827-1.052zM332.314 242.79l6.339.52-.134 1.635-6.34-.52zM258.464 214.991l92.908 7.623-.134 1.634-92.908-7.622zM268.813 219.868l71.54 5.869-.135 1.634-71.54-5.869z"/><path class="r" d="M251.28 177l.09-1.12a3.48 3.48 0 0 0 3.75-3.18l1.12.09a4.61 4.61 0 0 1-4.96 4.21zM360 184a4.57 4.57 0 0 1-.65-2.76l1.12.09a3.48 3.48 0 0 0 3.18 3.75l-.09 1.12a4.58 4.58 0 0 1-3.14-1.61 4.67 4.67 0 0 1-.42-.59zM245.46 248l.09-1.12a4.61 4.61 0 0 1 4.22 5l-1.12-.09a3.48 3.48 0 0 0-3.19-3.79zM352.82 260.27a4.61 4.61 0 0 1 5-4.22l-.09 1.12a3.48 3.48 0 0 0-3.75 3.18z"/><g opacity=".91"><path fill="#fa6060" d="M288.66 234.34l28.5 2.34-2.38 4.39 1.67 4.23-28.5-2.34 2.09-3.92-1.38-4.7z"/><path d="M309.3 240.3c0-.27.78-.53.77-.8s-.78-.48-.82-.75.64-.69.58-.95-.87-.29-1-.55.47-.81.35-1.05-.91-.09-1.06-.32.28-.9.11-1.1-.91.11-1.11-.07.08-.94-.14-1.1-.86.31-1.09.17-.13-.93-.38-1-.77.5-1 .41-.34-.88-.6-.93-.64.66-.91.63-.53-.78-.8-.77-.48.78-.75.82-.69-.64-.95-.58-.29.87-.55 1-.81-.47-1.05-.35-.09.91-.32 1.06-.9-.28-1.1-.11.11.91-.07 1.11-.94-.08-1.1.14.31.86.17 1.09-.93.13-1 .38.5.77.41 1-.88.34-.93.6.66.64.63.91-.78.53-.77.8.78.48.82.75-.64.69-.58.95.87.29 1 .55-.47.81-.35 1.05.91.09 1.06.32-.28.9-.11 1.1.91-.11 1.11.07-.08.94.14 1.1.86-.31 1.09-.17.13.93.38 1 .77-.5 1-.41.34.88.6.93.64-.66.91-.63.53.78.8.77.48-.78.75-.82.69.64.95.58.29-.87.55-1 .81.47 1.05.35.09-.91.32-1.06.9.28 1.1.11-.11-.91.07-1.11.94.08 1.1-.14-.31-.86-.17-1.09.93-.13 1-.38-.5-.77-.41-1 .88-.34.93-.6-.65-.63-.63-.91z" fill="#ffb725"/></g><g class="w"><path class="q" d="M228.55 185.86l76.6 90.22-16.4-1.35-61.55-72.55z"/></g><g class="w"><path class="q" d="M271.3 157.75L376.76 282l-4-.33-105.4-124.25s3.95.21 3.94.33z"/></g><g class="w"><path class="q" d="M369.76 213.16l-35.07-41.31c0-.12-3.94-.32-3.94-.32l38.69 45.61z"/></g><g class="w"><path class="q" d="M374.16 192l-19.7-22.75c0-.12-22.37-4.15-22.37-4.15l38.69 45.61z"/></g><g class="w"><path class="q" d="M262.68 157l105.45 124.25-16.4-1.35-105.36-124.2s16.32 1.22 16.31 1.3z"/></g><path class="x" d="M298.33 255.03v169.18l132-48.34V206.7l-132 48.33z"/><path fill="#f2983b" d="M167.63 375.39l130.7 48.82V255.03L167 206.7l.63 168.69z"/><path fill="#ec7f30" d="M298.33 254.07v18.36l-23.08 33.36-107.92-39.88V227l131 27.07z"/><path d="M298.18 272.19l24.19 33.23 108-39.11v-20.94l-131.57 9.34s-.7 17.4-.62 17.48z" fill="#faae4c"/><path fill="#f4a540" d="M299.15 254.07l-26.83 37.7-131.71-49.06 27.95-36.33 130.59 47.69z"/><path class="x" d="M298.91 255.03l27.07 36.74 131.95-47.85-28.04-37.22-130.98 48.33z"/><path class="ad" d="M316.506 82.346L276.583 8.542l11.602-6.276 39.922 73.805z"/><path class="p" d="M324.79 73.948l1.671-.904.571 1.055-1.671.904zM322.455 72.164l2.727-1.475.571 1.055-2.727 1.475zM322.233 69.234l1.67-.904.572 1.056-1.671.904zM319.902 67.437l2.727-1.475.57 1.055-2.726 1.475zM319.68 64.497l1.67-.904.571 1.056-1.67.904zM317.34 62.704l2.727-1.475.57 1.056-2.726 1.475zM317.122 59.784l1.671-.904.571 1.055-1.671.904zM314.783 57.99l2.726-1.474.571 1.055-2.726 1.475zM314.56 55.051l1.671-.904.57 1.056-1.67.904zM312.23 53.254l2.726-1.475.57 1.055-2.726 1.475zM312.007 50.324l1.67-.904.572 1.056-1.672.904zM309.672 48.54l2.727-1.475.57 1.056-2.726 1.474zM309.774 44.313l1.672-.912.576 1.056-1.672.912zM307.119 43.803l2.726-1.475.571 1.055-2.726 1.475zM306.887 40.868l1.671-.904.571 1.056-1.671.904zM304.556 39.08l2.727-1.474.571 1.055-2.727 1.475zM304.338 36.15l1.672-.904.57 1.055-1.67.904zM302 34.357l2.726-1.475.57 1.056-2.726 1.474zM301.776 31.417l1.672-.903.57 1.055-1.67.904zM299.446 29.62l2.726-1.475.571 1.055-2.726 1.475zM299.223 26.69l1.671-.904.571 1.056-1.671.904zM296.888 24.906l2.727-1.475.571 1.056-2.727 1.475zM296.666 21.967l1.67-.904.572 1.055-1.671.904zM294.326 20.174l2.727-1.475.57 1.056-2.726 1.474zM294.104 17.244l1.67-.904.572 1.056-1.672.904zM291.778 15.456l2.726-1.475.571 1.055-2.726 1.475zM291.555 12.516l1.671-.904.571 1.056-1.671.904zM289.216 10.723l2.726-1.475.571 1.056-2.726 1.475zM288.993 7.794l1.671-.904.571 1.055-1.671.904zM286.672 5.996l2.727-1.475.57 1.056-2.726 1.475z"/><circle class="p" cx="317.92" cy="78.35" r="1.35" transform="rotate(-28.41 317.909 78.35)"/><path class="o" d="M126.546 139.918l23.276-28.672 41.761 33.902a2.72 2.72 0 0 1 .398 3.826l-19.854 24.456a2.72 2.72 0 0 1-3.826.398l-41.761-33.903.006-.007z"/><path class="ae" d="M126.551 139.904l23.276-28.671 11.467 9.309-23.275 28.671z"/><path class="af" d="M133.174 138.638l16.847-20.752 4.852 3.94-16.847 20.752zM145.217 147.613l3.94-4.853 4.852 3.94-3.94 4.852zM151.275 140.146l3.94-4.852 4.852 3.939-3.94 4.852zM157.326 132.697l3.94-4.852 4.852 3.939-3.94 4.852zM151.946 153.085l3.94-4.852 4.851 3.939-3.939 4.852zM158.004 145.619l3.939-4.853 4.852 3.94-3.94 4.852zM164.061 138.162l3.94-4.852 4.852 3.939-3.94 4.852zM158.69 158.55l3.94-4.852 4.852 3.939-3.939 4.852zM164.748 151.083l3.94-4.852 4.852 3.94-3.94 4.851zM165.411 164.016l3.94-4.852 4.852 3.939-3.94 4.852zM171.47 156.55l3.938-4.853 4.853 3.94-3.94 4.852zM170.8 143.626l3.94-4.853 11.598 9.416-3.939 4.853z"/><circle class="ag" cx="400.3" cy="176.83" r="3.17"/><circle class="ah" cx="214.68" cy="163.27" r="5"/><circle class="ai" cx="251.46" cy="63.68" r="4"/><circle class="ah" cx="345.47" cy="75.27" r="3"/><circle class="aj" cx="321.4" cy="136.24" r="2.5"/><path class="ai" d="M204.84 106.85l1.09 1.99 1.99 1.09-1.99 1.09-1.09 1.99-1.09-1.99-1.99-1.09 1.99-1.09 1.09-1.99zM354.84 141.85l1.09 1.99 1.99 1.09-1.99 1.09-1.09 1.99-1.09-1.99-1.99-1.09 1.99-1.09 1.09-1.99z"/><path class="ah" d="M378.96 119.6l1.14 2.07 2.07 1.13-2.07 1.14-1.14 2.07-1.13-2.07-2.07-1.14 2.07-1.13 1.13-2.07z"/><path class="ag" d="M342.96 38.6l1.49 2.72 2.72 1.48-2.72 1.49-1.49 2.72-1.48-2.72-2.72-1.49 2.72-1.48 1.48-2.72z"/><path class="aj" d="M171.46 181.6l1.32 2.39 2.39 1.31-2.39 1.32-1.32 2.39-1.31-2.39-2.39-1.32 2.39-1.31 1.31-2.39z"/><path class="ae" d="M182.26 49.73c13.88-9.58 28.46-14.24 38.3-13.1L212 24.22l-12.14-.12-56.42 37.68-1.2 5.57 13.68 19.83c-1.3-10.18 9.21-25.63 26.34-37.45z"/><path class="ae" d="M182.26 49.73C165.13 61.55 154.62 77 155.92 87.18l5.58 8.08c9 4.83 27.23.49 44.36-11.33 13.88-9.58 23.42-21.55 25.85-31.16l-11.15-16.14c-9.84-1.14-24.42 3.53-38.3 13.1z"/><path class="o" d="M121.2 78.75l71.66-5.78 43.65-55.99-68.16 5.12-47.15 56.65z"/><path class="ak" d="M164.54 50.78s-47.35 14.94-24.19 48.64M146 138.08s-2-23.52-6.24-30.3.05-8 .05-8 5.41-5.76 10.24 8.83 4.63 12.7 6.28 28.3M137.88 101.64s8.82 7.4 9.95 36.85M139.17 100.68s9.71 9.91 10.47 37.24M140.45 99.52s10.4 10.75 11.16 38.08M142.41 98.8s10.73 11.56 11.49 38.88"/><path class="al" d="M177.43 127.19l-9.45-12.63 6.36-1.93 9.45 12.63-6.36 1.93zM166.16 115.01l9.42 12.6-2.44.62-9.39-12.55 2.41-.67z"/><path d="M245.77 109.2a7.33 7.33 0 0 1 4.69-4.08 9.9 9.9 0 0 1 2-.35c3.12-.23 4.74-.57 6.89-2.85s3.69-4.17 7.49-3.54a14.75 14.75 0 0 1 2.78.77 19.9 19.9 0 0 1 8.05 5.78 17.9 17.9 0 0 1 4.12 7.64c1.18 5.88.1 12.18-3 15.43a9 9 0 0 1-7.16 2.73 6.21 6.21 0 0 0-4.37 2.87c-1.68 2.52-5.39 3.37-9.22 1.89s-9.08-3.47-11.85-9.63-2.7-10.86-1.46-14.09c.36-1 .72-1.86 1.04-2.57z" fill="#f35b31"/><path class="an" d="M259 99.2s-5.11-13.48-17.63-6.06c.02 0 3.29 14.13 17.63 6.06zM259.77 98.08S256 92 262.59 89.41c0 0 4.51 5.59-2.82 8.67z"/><path d="M271.45 124.24a51.71 51.71 0 0 1-12 11.82c3.35.85 6.43-.07 7.92-2.3a6.21 6.21 0 0 1 4.37-2.87 9 9 0 0 0 7.16-2.73c3.07-3.25 4.15-9.56 3-15.43a14.89 14.89 0 0 0-2.15-5" fill="#e05332" opacity=".41"/><path class="aq" d="M263.52 91.05a17 17 0 0 1-3.22 6.43l-.46.57c4.74-2.05 4.45-5.11 3.68-7zM255 101a22.15 22.15 0 0 0 4-1.8 15.85 15.85 0 0 0-1.51-2.81c0 .11-.06.23-.1.34A10.84 10.84 0 0 1 255 101z"/><path class="p" d="M460.09 74.5l-39.46-24.84a5.09 5.09 0 0 0-7.18 1.56l-43 68.24a5.36 5.36 0 0 0 1.53 7.41l52.9 33.3a5.34 5.34 0 0 0 7.33-1.83l34.46-54.74z"/><path class="s" d="M452.86 85.14c-2.38 3.78-1.4 9.41 2.39 11.79l11.23 7.07L460 73.85zM404.254 75.289l52.657 33.108-1.134 1.803-52.657-33.108zM401.288 80.014l52.656 33.108-1.134 1.803-52.656-33.108zM398.316 84.747l52.656 33.108-1.134 1.803-52.656-33.108zM392.518 93.965l52.656 33.108-1.134 1.803-52.656-33.108zM389.537 98.693l52.657 33.108-1.134 1.803-52.656-33.108zM386.57 103.408l52.657 33.108-1.134 1.803-52.656-33.108z"/><path class="ar" d="M413 65.61l7.77-5.81 1.44.9-1.88 9.52-1.87-1.22.49-2.09-2.39-1.5-1.66 1.35zm7.3-3.49l-2.71 2.27 1.8 1.13zM427.24 68.24l-.87 1.38-1-.64-.71 1.12-1.55-1 .69-1.1-1-.65.85-1.35 1 .65.71-1.12 1.55 1-.71 1.12z"/><path fill="#ffc68d" d="M317.67 117.46l-9.16 1.73 5.71-7.2 1.4-.65 3.07 4.87-1.02 1.25z"/><path fill="#fee5b4" d="M361.263 90.738l-3.375-5.508 4.774-2.926 3.376 5.508z"/><path fill="#edd9b7" d="M359.738 91.677l-3.376-5.508 1.902-1.165 3.375 5.508z"/><path class="ad" d="M317.555 117.515l-3.376-5.508 42.47-26.026 3.376 5.508z"/><path class="ad" d="M317.67 117.45l-1.02-.22.17-.96-.88-.29.14-.89-.84-.28.12-.9-.73-.27.05-.85-.75-.14.29-.66.6-.3 3.28 5.34-.43.42z"/><path d="M310.32 116.91l-1.81 2.29 2.93-.55a3 3 0 0 0-1.12-1.74z" fill="#1f1b41"/></svg>