<svg xmlns="http://www.w3.org/2000/svg" viewBox="0 0 649.35 566.32"><defs><style>.a,.b{fill:none}.b{clip-rule:evenodd}.c{clip-path:url(#a)}.d{clip-path:url(#b)}.e{fill:#fff9e9}.f{clip-path:url(#c)}.g,.l{fill:#fee5b4}.g{opacity:.5}.h{clip-path:url(#e)}.i{clip-path:url(#g)}.j{clip-path:url(#i)}.k{clip-path:url(#k)}.l{opacity:.45}.m{opacity:.49}.as,.m,.q{isolation:isolate}.n{clip-path:url(#m)}.o{clip-path:url(#n)}.p{clip-path:url(#o)}.r{clip-path:url(#q)}.s{clip-path:url(#r)}.t{fill:#fecf7b;opacity:.72}.u{clip-path:url(#s)}.v{clip-path:url(#u)}.w{fill:#fc7677}.x{clip-path:url(#w)}.y{fill:#b55d66}.z{clip-path:url(#y)}.aa{clip-path:url(#aa)}.ab{clip-path:url(#ac)}.ac{clip-path:url(#ae)}.ad{clip-path:url(#ag)}.ae{fill:#efa37d}.af{clip-path:url(#ai)}.ag{fill:#fdad80}.ah{clip-path:url(#ak)}.ai{fill:#092953}.aj{clip-path:url(#am)}.ak{fill:#fff}.al{clip-path:url(#ao)}.am{clip-path:url(#aq)}.an{clip-path:url(#as)}.ao{fill:#ec407a}.ap{clip-path:url(#au)}.aq{clip-path:url(#aw)}.ar{clip-path:url(#ay)}.as{opacity:.06}.at{clip-path:url(#ba)}.au{clip-path:url(#bb)}.av{clip-path:url(#bc)}.aw{fill:#333;opacity:.72}.ax{clip-path:url(#bd)}.ay{fill:#f7c244}.az{clip-path:url(#bf)}.ba{fill:#ba8d3c}.bb{clip-path:url(#bh)}.bc{clip-path:url(#bj)}.bd{clip-path:url(#bl)}.be{clip-path:url(#bn)}.bf{fill:#fae26e}.bg{clip-path:url(#bp)}.bh{fill:#a59656}.bi{clip-path:url(#br)}.bj{clip-path:url(#bt)}.bk{clip-path:url(#bv)}.bl{clip-path:url(#bx)}.bm{clip-path:url(#bz)}.bn{clip-path:url(#cb)}.bo{clip-path:url(#cd)}.bp{clip-path:url(#cf)}.bq{clip-path:url(#ch)}.br{clip-path:url(#cj)}.bs{clip-path:url(#cl)}.bt{clip-path:url(#cn)}.bu{clip-path:url(#cp)}.bv{clip-path:url(#cr)}.bw{clip-path:url(#ct)}.bx{clip-path:url(#cv)}.by{clip-path:url(#cx)}.bz{clip-path:url(#cz)}.ca{clip-path:url(#db)}.cb{clip-path:url(#dd)}.cc{clip-path:url(#df)}.cd{clip-path:url(#dh)}.ce{clip-path:url(#dj)}.cf{fill:#6cd8c4}.cg{clip-path:url(#dl)}.ch{fill:#49877b}.ci{clip-path:url(#dn)}.cj{clip-path:url(#dp)}.ck{clip-path:url(#dr)}.cl{clip-path:url(#dt)}.cm{clip-path:url(#dv)}.cn{clip-path:url(#dx)}.co{clip-path:url(#dy)}.cp{clip-path:url(#ea)}.cq{clip-path:url(#ec)}.cr{clip-path:url(#ee)}.cs{clip-path:url(#ef)}.ct{clip-path:url(#eh)}.cu{clip-path:url(#ej)}.cv{clip-path:url(#el)}.cw{clip-path:url(#em)}.cx{clip-path:url(#eo)}.cy{clip-path:url(#eq)}.cz{clip-path:url(#es)}.da{clip-path:url(#eu)}.db{clip-path:url(#ew)}.dc{clip-path:url(#ey)}.dd{clip-path:url(#fa)}.de{clip-path:url(#fc)}.df{fill:#02b3e4}.dg{clip-path:url(#fe)}.dh{fill:#077893}.di{clip-path:url(#fg)}.dj{clip-path:url(#fi)}.dk{clip-path:url(#fk)}.dl{clip-path:url(#fm)}.dm{clip-path:url(#fo)}.dn{clip-path:url(#fq)}.do{clip-path:url(#fs)}.dp{clip-path:url(#fu)}.dq{clip-path:url(#fw)}.dr{clip-path:url(#fy)}.ds{clip-path:url(#ga)}</style><clipPath id="a" transform="translate(-4954.33 -3375.49)"><ellipse class="a" cx="5275.31" cy="3608.83" rx="275.72" ry="217.5"/></clipPath><clipPath id="b" transform="translate(-4954.33 -3375.49)"><path class="a" d="M4314.33 3287.33h1440v1030h-1440z"/></clipPath><clipPath id="c" transform="translate(-4954.33 -3375.49)"><path class="b" d="M4959.33 3518.21h220.74q-2.9-13.48-15.29-13.48c-12.38 0-25.82.37-33.46-6.62s-14.31-22.2-26.08-25-27.73 1.18-35.53-6.27-17.67-13.94-26.87-13.94-14.68 4.37-18.48 9.15a19.05 19.05 0 0 0-4.15 11.06q1.88-4.85-8.5 0c-10.38 4.85-16.14 8.07-21.15 16.53s.48 11.4-5.88 15.08q-6.37 3.68-25.35 13.49z"/></clipPath><clipPath id="e" transform="translate(-4954.33 -3375.49)"><path class="b" d="M5598.68 3599.62h-223.75q2.94-13.48 15.5-13.48c12.55 0 26.17.37 33.92-6.62s14.51-22.2 26.44-25 28.11 1.18 36-6.27 17.92-13.94 27.24-13.94 14.88 4.37 18.73 9.15a18.9 18.9 0 0 1 4.21 11.06q-1.9-4.85 8.62 0c10.52 4.85 16.36 8.07 21.44 16.53s-.49 11.4 6 15.08q6.41 3.69 25.65 13.49z"/></clipPath><clipPath id="g" transform="translate(-4954.33 -3375.49)"><path class="b" d="M5551.13 3696.29h-128.9q1.7-8.49 8.93-8.49c7.23 0 15.08.23 19.54-4.17s8.36-14 15.23-15.74 16.19.74 20.75-4 10.32-8.78 15.69-8.78 8.57 2.75 10.79 5.77a12.57 12.57 0 0 1 2.42 7q-1.1-3.06 5 0c6.06 3.06 9.43 5.08 12.35 10.41s-.28 7.18 3.43 9.5q3.69 2.32 14.77 8.5z"/></clipPath><clipPath id="i" transform="translate(-4954.33 -3375.49)"><path class="b" d="M5122.45 3681.19h-125.88q1.66-9.12 8.72-9.12c7.06 0 14.72.25 19.08-4.48s8.16-15 14.88-16.89 15.81.8 20.26-4.24 10.08-9.43 15.33-9.43 8.37 3 10.54 6.19a14.37 14.37 0 0 1 2.37 7.48q-1.07-3.28 4.85 0c5.92 3.28 9.21 5.46 12.06 11.17s-.27 7.71 3.35 10.2q3.62 2.49 14.44 9.12z"/></clipPath><clipPath id="k" transform="translate(-4954.33 -3375.49)"><path class="b" d="M5057 3741.75c60.91-13.17 140.38-21.14 227.32-21.14 79.91 0 153.51 6.73 212.19 18.05-50.26 53.21-130.65 87.68-221.24 87.68-88.82 0-167.84-33.13-218.27-84.59z"/></clipPath><clipPath id="m" transform="translate(-4954.33 -3375.49)"><path class="a" d="M5336.33 3423.33h34v35h-34z"/></clipPath><clipPath id="n" transform="translate(-4954.33 -3375.49)"><path class="a" transform="rotate(-1 5353.76 3440.523)" d="M5336.69 3423.65h34.05v34.15h-34.05z"/></clipPath><clipPath id="o" transform="translate(-4954.33 -3375.49)"><path class="a" d="M5336.33 3422.33h36v37h-36z"/></clipPath><clipPath id="q" transform="translate(-4954.33 -3375.49)"><path class="b" d="M5352.34 3457.8c-.22-.62-.41-1-.51-1.46-.55-2.34-1.11-4.68-1.6-7a.8.8 0 0 0-1.15-.76 3.67 3.67 0 0 1-4.23-4.05c.15-.83-.13-1-.87-1.17-2.45-.43-4.9-.91-7.34-1.4a4.4 4.4 0 0 1-.93-.42 4.05 4.05 0 0 1 .52-1c1.82-1.9 3.74-3.7 5.49-5.66a6.51 6.51 0 0 1 7.22-2.09 1.32 1.32 0 0 0 1.63-.53 57.72 57.72 0 0 1 4-4.58c3.56-3.53 7.93-4.66 12.84-4.08a2 2 0 0 1 1.94 1.89c.67 5-.35 9.46-3.92 13.16-1.33 1.38-2.8 2.62-4.25 3.88a1.22 1.22 0 0 0-.5 1.53 6.38 6.38 0 0 1-1.9 7.32c-1.84 1.73-3.52 3.61-5.28 5.42-.29.3-.62.57-1.13 1m9.59-29.9a3.2 3.2 0 1 0 3.16 3.32 3.22 3.22 0 0 0-3.16-3.32"/></clipPath><clipPath id="r" transform="translate(-4954.33 -3375.49)"><path class="a" d="M5336.33 3423.33h35v35h-35z"/></clipPath><clipPath id="s" transform="translate(-4954.33 -3375.49)"><path class="b" d="M5340.44 3454.51c.27-1.87.49-3.8.86-5.69a7.51 7.51 0 0 1 1-2.52 1 1 0 0 1 1.92.13 9.11 9.11 0 0 0 4.11 4.06c1 .51 1.05 1.12.29 1.92a5.52 5.52 0 0 1-3.59 1.6c-1.52.16-3 .34-4.61.51"/></clipPath><clipPath id="u" transform="translate(-4954.33 -3375.49)"><path class="b" d="M5423 3603a27.33 27.33 0 1 0-27.33 27.33A27.33 27.33 0 0 0 5423 3603"/></clipPath><clipPath id="w" transform="translate(-4954.33 -3375.49)"><path class="b" d="M5395.66 3620.66c-4.4 0-7.85-7.76-7.85-17.66s3.45-17.66 7.85-17.66 7.85 7.76 7.85 17.66-3.45 17.66-7.85 17.66m0-34c-3.55 0-6.54 7.49-6.54 16.35s3 16.35 6.54 16.35 6.54-7.49 6.54-16.35-3-16.35-6.54-16.35"/></clipPath><clipPath id="y" transform="translate(-4954.33 -3375.49)"><path class="b" d="M5395.66 3610.85c-9.9 0-17.66-3.45-17.66-7.85s7.76-7.85 17.66-7.85 17.66 3.45 17.66 7.85-7.76 7.85-17.66 7.85m0-14.39c-8.86 0-16.35 3-16.35 6.54s7.49 6.54 16.35 6.54 16.35-3 16.35-6.54-7.49-6.54-16.35-6.54"/></clipPath><clipPath id="aa" transform="translate(-4954.33 -3375.49)"><path class="b" d="M5386.56 3616.71a4.62 4.62 0 0 1-3.38-1.22c-3.11-3.11-.06-11 6.94-18a32.5 32.5 0 0 1 10.21-7.16c3.49-1.42 6.27-1.34 7.83.22 3.11 3.11.06 11-6.94 18-5.14 5.14-10.79 8.15-14.65 8.15m18.19-26.11a10.82 10.82 0 0 0-3.94.91 31.16 31.16 0 0 0-9.78 6.87c-6.27 6.27-9.44 13.68-6.94 16.19s9.92-.67 16.19-6.94 9.44-13.68 6.94-16.19a3.39 3.39 0 0 0-2.47-.84"/></clipPath><clipPath id="ac" transform="translate(-4954.33 -3375.49)"><path class="b" d="M5404.76 3616.72a12.09 12.09 0 0 1-4.44-1 32.52 32.52 0 0 1-10.21-7.16c-7-7-10-14.92-6.94-18s11-.06 18 6.94 10 14.92 6.94 18a4.62 4.62 0 0 1-3.39 1.23m-18.19-26.13a3.38 3.38 0 0 0-2.47.86c-2.51 2.51.67 9.92 6.94 16.19a31.16 31.16 0 0 0 9.78 6.87c2.93 1.19 5.27 1.21 6.41.07 2.51-2.51-.67-9.92-6.94-16.19-4.81-4.81-10.29-7.8-13.71-7.8"/></clipPath><clipPath id="ae" transform="translate(-4954.33 -3375.49)"><path class="b" d="M5395.66 3605.62a2.62 2.62 0 1 1 2.62-2.62 2.62 2.62 0 0 1-2.62 2.62m0-3.92a1.31 1.31 0 1 0 1.34 1.3 1.31 1.31 0 0 0-1.31-1.31"/></clipPath><clipPath id="ag" transform="translate(-4954.33 -3375.49)"><path class="a" d="M5284.93 3521.68l-37.16 1 23 65.4 12.57-36.2s-.09-27.48 1.59-30.2z"/></clipPath><clipPath id="ai" transform="translate(-4954.33 -3375.49)"><ellipse class="a" cx="5270.37" cy="3510.61" rx="28.62" ry="33.21"/></clipPath><clipPath id="ak" transform="translate(-4954.33 -3375.49)"><path class="a" d="M5283.41 3553.06c-.56-8.19-1.23-14.52 4.9-21.87 4.11-4.94 5.76-12.23 7.61-18.72 1.68-5.88-.24-10.45-5.64-14.66-5.64-4.39-9.69-11-13.84-15.86-8.41 6.66-17.15 13.48-25.74 20.49-1.37 1.13-3 3.09-3 4.67 0 10.32 2.32 20 10.14 27.33 9 8.53 6.65 15.71 3.38 28-4.34 11.88-13.41 19.78-24.31 18.5-13.47-1.59-21.12-12.79-17.37-26a28.71 28.71 0 0 1 5.24-10.67c8.5-9.92 11-21.46 12-34.13.78-9.2 2.43-19.14 6.76-27.08 11.27-20.84 39.58-20.8 52.25-.83 13.58 21.26 7.05 56.44-12.38 70.83z"/></clipPath><clipPath id="am" transform="translate(-4954.33 -3375.49)"><path class="a" d="M5260.83 3524.7c0 4.42 5 8.05 11 8.05s11-3.61 11-8.05"/></clipPath><clipPath id="ao" transform="translate(-4954.33 -3375.49)"><path class="a" d="M5398 3642.75c-7.4 1.93-19-.32-19-.32 5.79-9.69-14.48-5.81-14.48-5.81l-10.36-1.9c-11.33-5.84-16.34-16.23-22.41-21.41-8.53-7.27-14.08-28.22-14.08-28.22-26.39 4.36-11.64 20.35-11.64 20.35a63.55 63.55 0 0 0 13.19 19.63c9.31 9.45 18.63 10.91 38.79 21.81 2.19 1.14 4.06 2.09 5.67 2.79a42.31 42.31 0 0 0 4.37 2.13c6.44 2.58 21.24-2.58 26.06-2.58s11.27-8.41 3.89-6.47z"/></clipPath><clipPath id="aq" transform="translate(-4954.33 -3375.49)"><path class="a" d="M5147.7 3642.75c7.4 1.93 19-.32 19-.32-5.79-9.69 14.48-5.81 14.48-5.81l10.35-1.9c11.33-5.84 16.34-16.23 22.41-21.41 8.53-7.27 14.08-28.22 14.08-28.22 26.38 4.36 11.63 20.35 11.63 20.35a63.55 63.55 0 0 1-13.19 19.63c-9.31 9.45-18.62 10.91-38.79 21.81-2.19 1.14-4.06 2.09-5.66 2.79a42.29 42.29 0 0 1-4.37 2.13c-6.43 2.58-21.24-2.58-26.06-2.58s-11.31-8.41-3.88-6.47z"/></clipPath><clipPath id="as" transform="translate(-4954.33 -3375.49)"><path class="a" d="M5302.63 3675.66s24 79.93 22.39 86.84-30 67.57-30 67.57-12.17.31-8.93-11.06 24.57-54.67 23-59.16-29.44-58.63-29.44-58.63-6.89-4.07-8.52 4.86-11 74.66-10.54 77.5 11 74.26 11 74.26.41 18.67-13.38 11.38c0 0-16.23-78.73-16.23-83.19s-1.14-110.16-1.14-110.16z"/></clipPath><clipPath id="au" transform="translate(-4954.33 -3375.49)"><path class="a" d="M5258.82 3869s3.28 37.56 11.51 37.16 8.21-25.17 7-29.13a13.09 13.09 0 0 1-.21-4l6.68-1.28 2.15-3.5-13.55-10.38z"/></clipPath><clipPath id="aw" transform="translate(-4954.33 -3375.49)"><path class="a" d="M5300 3846.52c.79 4.47 3.18 13.41-4 12.19s-9.36-19.61-9.36-19.61l-2-6-6.37.43-2.38-1.65 10.35-14.32 11.85 7.17z"/></clipPath><clipPath id="ay" transform="translate(-4954.33 -3375.49)"><path class="a" d="M5263.62 3553.06l4.13 10.42a31.75 31.75 0 0 1 1.88 6.92l2.59 13.88 3.41-14.41a34.06 34.06 0 0 1 2.16-5.83l5.61-11.25s32.44 6.8 34.67 32.86c0 0-23.86 6.73-12.14 19.42l-2.33 70.51h-62.5l-.6-70.51s13.1-16.8-11.81-19.67c.1.04 8.25-31.94 34.93-32.34z"/></clipPath><clipPath id="ba" transform="translate(-4954.33 -3375.49)"><path class="a" d="M5219.33 3925.33h106v12h-106z"/></clipPath><clipPath id="bb" transform="translate(-4954.33 -3375.49)"><ellipse class="a" cx="5272.18" cy="3931.4" rx="52.25" ry="5.41"/></clipPath><clipPath id="bc" transform="translate(-4954.33 -3375.49)"><path class="a" d="M5219.33 3924.33h106v13h-106z"/></clipPath><clipPath id="bd" transform="translate(-4954.33 -3375.49)"><path class="b" d="M5407.11 3507.44a32.89 32.89 0 1 0-32.89 32.89 32.89 32.89 0 0 0 32.89-32.89"/></clipPath><clipPath id="bf" transform="translate(-4954.33 -3375.49)"><path class="b" d="M5380.79 3524.3l-19.87-5.68a.81.81 0 0 1-.33-1.36 11.57 11.57 0 0 1 2-1.59c.54-.3.7-1.15 1-2.63a25.51 25.51 0 0 1 .61-2.91c.88-3.09 4.15-5.54 9.85-8.77-2.63-1-6.81-.4-8.43 0a.8.8 0 0 1-.94-.57l-1.42-5.06a.81.81 0 0 1 .43-.94l11.11-5.34a.8.8 0 0 1 .44-.07 19.73 19.73 0 0 1 9.09 4.36c5.33 4.27 3 13.69-1.47 20.64-2.64 4.14-2.05 7.07-1.09 8.79a.8.8 0 0 1-.07.89.79.79 0 0 1-.85.27m-18-6.82l16.85 4.82c-.58-2-.62-5 1.82-8.83 4.2-6.56 6.17-15 1.82-18.51a19 19 0 0 0-8.06-4l-10.27 4.94 1 3.69c2-.35 7.39-1.05 10.18 1.11a.81.81 0 0 1-.1 1.34c-6 3.31-9.58 5.76-10.36 8.52a24.51 24.51 0 0 0-.57 2.74c-.28 1.65-.51 3.08-1.76 3.77a5.1 5.1 0 0 0-.58.4"/></clipPath><clipPath id="bh" transform="translate(-4954.33 -3375.49)"><path class="b" d="M5379.55 3532.3l-21.63-6.18a.81.81 0 0 1-.55-1l1.76-6.21a.8.8 0 0 1 1-.55l21.63 6.18a.81.81 0 0 1 .55 1l-1.76 6.2a.8.8 0 0 1-1 .56zm-20.42-7.51l20.09 5.74 1.32-4.65-20.09-5.74z"/></clipPath><clipPath id="bj" transform="translate(-4954.33 -3375.49)"><path class="b" d="M5384.12 3524.3a.82.82 0 0 1-.48-.36 7.77 7.77 0 0 1-.57-5.86c.51-1.76 2-4 3.6-6.45a51.56 51.56 0 0 0 3.33-5.53c2.42-5 2.21-9.6-.63-13.55s-8.52-6.48-10.64-7.33l-.78 2.67a.83.83 0 0 1-1 .55.8.8 0 0 1-.57-1l1-3.52a.81.81 0 0 1 .41-.49.82.82 0 0 1 .65 0c.34.12 8.47 3 12.26 8.24 3.21 4.46 3.47 9.56.78 15.16a52.5 52.5 0 0 1-3.44 5.72 28.38 28.38 0 0 0-3.4 6 6.16 6.16 0 0 0 .41 4.6.8.8 0 0 1-.3 1.1.84.84 0 0 1-.64.08"/></clipPath><clipPath id="bl" transform="translate(-4954.33 -3375.49)"><path class="b" d="M5373 3495.31a.8.8 0 0 1-.61-.52.71.71 0 0 1 .66-.84l3.25-.59a.9.9 0 0 1 1 .53.71.71 0 0 1-.66.84l-3.25.59a1.06 1.06 0 0 1-.43 0"/></clipPath><clipPath id="bn" transform="translate(-4954.33 -3375.49)"><path class="b" d="M5277.18 3418.45a37.92 37.92 0 1 0-37.92 38 37.94 37.94 0 0 0 37.92-38"/></clipPath><clipPath id="bp" transform="translate(-4954.33 -3375.49)"><path class="b" d="M5262.43 3428.38h-46.19a.91.91 0 0 1-.91-.91v-27.22a.91.91 0 0 1 .91-.91h46.19a.91.91 0 0 1 .91.91v27.22a.91.91 0 0 1-.91.91zm-45.28-1.81h44.38v-25.4h-44.38v25.4z"/></clipPath><clipPath id="br" transform="translate(-4954.33 -3375.49)"><path class="b" d="M5244.42 3400.35h-9.17a.9.9 0 0 1-.92-.89v-6.23a.9.9 0 0 1 .92-.89h9.17a.9.9 0 0 1 .92.89v6.23a.9.9 0 0 1-.92.89zm-8.25-1.78h7.33v-4.45h-7.33v4.45z"/></clipPath><clipPath id="bt" transform="translate(-4954.33 -3375.49)"><path class="a" d="M5238.33 3426.38h2v16.02h-2z"/></clipPath><clipPath id="bv" transform="translate(-4954.33 -3375.49)"><path class="b" d="M5232.62 3443.4h-6.29v-1.84h5.2l7.23-15.18 1.57.83-7.71 16.19z"/></clipPath><clipPath id="bx" transform="translate(-4954.33 -3375.49)"><path class="b" d="M5253.33 3443.4h-6.28l-7.72-16.19 1.58-.83 7.23 15.18h5.19v1.84z"/></clipPath><clipPath id="bz" transform="translate(-4954.33 -3375.49)"><path class="a" d="M5221.33 3408.36h6v2h-6z"/></clipPath><clipPath id="cb" transform="translate(-4954.33 -3375.49)"><path class="a" d="M5221.33 3419.37h6v2h-6z"/></clipPath><clipPath id="cd" transform="translate(-4954.33 -3375.49)"><path class="a" d="M5221.33 3413.37h6v2h-6z"/></clipPath><clipPath id="cf" transform="translate(-4954.33 -3375.49)"><path class="a" d="M5229.33 3411.37h5v2h-5z"/></clipPath><clipPath id="ch" transform="translate(-4954.33 -3375.49)"><path class="a" d="M5229.33 3415.37h5v2h-5z"/></clipPath><clipPath id="cj" transform="translate(-4954.33 -3375.49)"><path class="a" d="M5220.33 3408.36h2v13.01h-2z"/></clipPath><clipPath id="cl" transform="translate(-4954.33 -3375.49)"><path class="a" d="M5247.33 3408.36h6v2h-6z"/></clipPath><clipPath id="cn" transform="translate(-4954.33 -3375.49)"><path class="a" d="M5247.33 3419.37h6v2h-6z"/></clipPath><clipPath id="cp" transform="translate(-4954.33 -3375.49)"><path class="a" d="M5247.33 3408.36h2v13.01h-2z"/></clipPath><clipPath id="cr" transform="translate(-4954.33 -3375.49)"><path class="a" d="M5238.33 3408.36h2v13.01h-2z"/></clipPath><clipPath id="ct" transform="translate(-4954.33 -3375.49)"><path class="a" d="M5243.33 3408.36h2v13.01h-2z"/></clipPath><clipPath id="cv" transform="translate(-4954.33 -3375.49)"><path class="a" d="M5240.33 3408.36h2v5.01h-2z"/></clipPath><clipPath id="cx" transform="translate(-4954.33 -3375.49)"><path class="a" d="M5238.33 3408.36h7v2h-7z"/></clipPath><clipPath id="cz" transform="translate(-4954.33 -3375.49)"><path class="a" d="M5254.33 3403.36h5v2h-5z"/></clipPath><clipPath id="db" transform="translate(-4954.33 -3375.49)"><path class="a" d="M5257.33 3404.36h2v3h-2z"/></clipPath><clipPath id="dd" transform="translate(-4954.33 -3375.49)"><path class="a" d="M5254.33 3406.36h5v2h-5z"/></clipPath><clipPath id="df" transform="translate(-4954.33 -3375.49)"><path class="a" d="M5254.33 3409.36h5v2h-5z"/></clipPath><clipPath id="dh" transform="translate(-4954.33 -3375.49)"><path class="a" d="M5254.33 3406.36h2v4h-2z"/></clipPath><clipPath id="dj" transform="translate(-4954.33 -3375.49)"><path class="b" d="M5192.92 3503.49a30.79 30.79 0 1 0-30.79 30.75 30.77 30.77 0 0 0 30.79-30.75"/></clipPath><clipPath id="dl" transform="translate(-4954.33 -3375.49)"><path class="b" d="M5173.16 3494.52h-.48a.74.74 0 0 1-.54-.29l-4.34-5.75a.73.73 0 0 1-.13-.59 7.22 7.22 0 0 1 2.77-4.25c3-2.24 7-1.95 8.93.64a5.49 5.49 0 0 1 .92 4.56 7.23 7.23 0 0 1-2.76 4.19 7.31 7.31 0 0 1-4.37 1.49zm0-1.47a5.83 5.83 0 0 0 3.54-1.21 5.77 5.77 0 0 0 2.21-3.33 4 4 0 0 0-.66-3.36c-1.47-1.94-4.55-2.1-6.87-.35a5.81 5.81 0 0 0-2.14 3.06z"/></clipPath><clipPath id="dn" transform="translate(-4954.33 -3375.49)"><path class="b" d="M5170 3495.75h-.1a.74.74 0 0 1-.49-.29l-3.54-4.7a.73.73 0 0 1 .14-1l2.35-1.77a.74.74 0 0 1 1 .14l3.54 4.7a.73.73 0 0 1-.15 1l-2.35 1.77a.74.74 0 0 1-.4.15zm-2.51-5.29l2.66 3.52 1.18-.88-2.66-3.52z"/></clipPath><clipPath id="dp" transform="translate(-4954.33 -3375.49)"><path class="b" d="M5154.26 3506.66a.74.74 0 0 1-.59-.29l-2.66-3.52a.74.74 0 0 1 .12-1l14.84-12.09a.75.75 0 0 1 .55-.16.73.73 0 0 1 .5.29l3.54 4.7a.73.73 0 0 1-.17 1l-15.73 10.91a.73.73 0 0 1-.4.16zm-1.64-4.13l1.81 2.39 14.52-10.07-2.62-3.48z"/></clipPath><clipPath id="dr" transform="translate(-4954.33 -3375.49)"><path class="b" d="M5151.47 3507.84a.73.73 0 0 1-.59-.29l-1.77-2.35a.74.74 0 0 1 .14-1l2.35-1.77a.74.74 0 0 1 1 .14l1.77 2.35a.73.73 0 0 1-.14 1l-2.35 1.77a.73.73 0 0 1-.41.15zm-.74-2.94l.89 1.17 1.18-.88-.89-1.17z"/></clipPath><clipPath id="dt" transform="translate(-4954.33 -3375.49)"><path class="b" d="M5175.12 3484.71l.88 1.18-1.17.88-.89-1.17 1.18-.89z"/></clipPath><clipPath id="dv" transform="translate(-4954.33 -3375.49)"><path class="b" d="M5173.92 3485.53l.95 1.25 1.26-.94-.95-1.26"/></clipPath><clipPath id="dx" transform="translate(-4954.33 -3375.49)"><path class="a" d="M5173.33 3484.33h3v3h-3z"/></clipPath><clipPath id="dy" transform="translate(-4954.33 -3375.49)"><path class="b" d="M5174.87 3488.36a1.58 1.58 0 0 1-1.26-.63l-.95-1.26a1.57 1.57 0 0 1 .31-2.2l1.26-.95a1.58 1.58 0 0 1 2.21.31l1 1.26a1.57 1.57 0 0 1-.31 2.21l-1.26.95a1.57 1.57 0 0 1-.95.32"/></clipPath><clipPath id="ea" transform="translate(-4954.33 -3375.49)"><path class="b" d="M5177.21 3487.56l.88 1.15-1.16.88-.88-1.16 1.16-.87z"/></clipPath><clipPath id="ec" transform="translate(-4954.33 -3375.49)"><path class="b" d="M5176.13 3488.38l.71 1.26.94-.95-.71-1.26"/></clipPath><clipPath id="ee" transform="translate(-4954.33 -3375.49)"><path class="a" d="M5175.33 3487.33h3v3h-3z"/></clipPath><clipPath id="ef" transform="translate(-4954.33 -3375.49)"><path class="b" d="M5176.84 3491.21a1.11 1.11 0 0 1-.95-.63l-.71-1.26a2 2 0 0 1-.23-1.17 1.73 1.73 0 0 1 .46-1l.94-.95a1 1 0 0 1 1.66.31l.71 1.26a1.94 1.94 0 0 1-.23 2.21l-.94.95a1 1 0 0 1-.71.32"/></clipPath><clipPath id="eh" transform="translate(-4954.33 -3375.49)"><path class="b" d="M5174.16 3487.56l.88 1.15-1.16.88-.87-1.16 1.15-.87z"/></clipPath><clipPath id="ej" transform="translate(-4954.33 -3375.49)"><path class="b" d="M5172.69 3488.4l.95.94 1.25-.71-.94-.94"/></clipPath><clipPath id="el" transform="translate(-4954.33 -3375.49)"><path class="a" d="M5172.33 3487.33h3v3h-3z"/></clipPath><clipPath id="em" transform="translate(-4954.33 -3375.49)"><path class="b" d="M5173.64 3490.52a1.8 1.8 0 0 1-1.26-.47l-.95-.94a1 1 0 0 1 .31-1.65l1.26-.71a2 2 0 0 1 2.21.23l.95.94a1 1 0 0 1-.31 1.65l-1.26.71a1.93 1.93 0 0 1-.95.24"/></clipPath><clipPath id="eo" transform="translate(-4954.33 -3375.49)"><path class="b" d="M5144.59 3511.29l-.88-1.17 7.03-5.33.88 1.18-7.03 5.32z"/></clipPath><clipPath id="eq" transform="translate(-4954.33 -3375.49)"><path class="b" d="M5146.36 3518.08a4.43 4.43 0 0 1-2.66-8 .73.73 0 0 1 1 .15.74.74 0 0 1-.15 1 2.95 2.95 0 0 0 3.53 4.71.73.73 0 0 1 1 .15.74.74 0 0 1-.15 1 4.37 4.37 0 0 1-2.64.89"/></clipPath><clipPath id="es" transform="translate(-4954.33 -3375.49)"><path class="b" d="M5153 3523.23a.73.73 0 0 1-.59-.29.74.74 0 0 1 .14-1 3 3 0 0 0 .58-4.13 2.93 2.93 0 0 0-4.11-.58.73.73 0 0 1-1-.14.74.74 0 0 1 .15-1 4.39 4.39 0 0 1 6.17.87 4.45 4.45 0 0 1-.87 6.2.73.73 0 0 1-.44.15"/></clipPath><clipPath id="eu" transform="translate(-4954.33 -3375.49)"><path class="b" d="M5166.08 3516.82c-2.06 0-3.67-1.13-3.67-2.58s1.61-2.58 3.67-2.58 3.67 1.13 3.67 2.58-1.61 2.58-3.67 2.58m0-3.69c-1.26 0-2.2.58-2.2 1.11s.94 1.11 2.2 1.11 2.2-.58 2.2-1.11-.94-1.11-2.2-1.11"/></clipPath><clipPath id="ew" transform="translate(-4954.33 -3375.49)"><path class="b" d="M5169 3514.6a.74.74 0 0 1-.73-.74V3505a.73.73 0 1 1 1.47 0v8.89a.74.74 0 0 1-.73.74"/></clipPath><clipPath id="ey" transform="translate(-4954.33 -3375.49)"><path class="b" d="M5174.15 3519c-2.06 0-3.67-1.13-3.67-2.58s1.61-2.58 3.67-2.58 3.67 1.13 3.67 2.58-1.61 2.58-3.67 2.58m0-3.69c-1.26 0-2.2.58-2.2 1.11s.94 1.11 2.2 1.11 2.2-.58 2.2-1.11-.94-1.11-2.2-1.11"/></clipPath><clipPath id="fa" transform="translate(-4954.33 -3375.49)"><path class="b" d="M5177.09 3516.82a.74.74 0 0 1-.73-.74v-8.33l-7.42-2.08a.74.74 0 0 1 .39-1.42l8 2.24a.74.74 0 0 1 .54.71v8.89a.74.74 0 0 1-.73.74"/></clipPath><clipPath id="fc" transform="translate(-4954.33 -3375.49)"><path class="b" d="M5174.09 3600a24.38 24.38 0 1 0-24.38 24.42 24.4 24.4 0 0 0 24.38-24.42"/></clipPath><clipPath id="fe" transform="translate(-4954.33 -3375.49)"><path class="b" d="M5160.44 3610.08a7.55 7.55 0 0 1-6-1l-7.51 2a7.61 7.61 0 0 1-14.15-1.72 7.79 7.79 0 0 1 5.07-9.38h.11l19-5h.12a7.63 7.63 0 0 1 8.92 5.67 7.81 7.81 0 0 1-5.48 9.5m-14.13-.12l8-2.13a.6.6 0 0 1 .5.09 6.33 6.33 0 0 0 5.28 1 6.56 6.56 0 0 0 4.6-8 6.41 6.41 0 0 0-7.57-4.75h-.06l-18.79 5h-.06a6.54 6.54 0 0 0-4.33 7.9 6.39 6.39 0 0 0 12 1.23.61.61 0 0 1 .4-.33"/></clipPath><clipPath id="fg" transform="translate(-4954.33 -3375.49)"><path class="b" d="M5141.16 3610.07a.68.68 0 0 1-.83-.44l-1.71-5.93a.61.61 0 0 1 .49-.75.69.69 0 0 1 .83.44l1.71 5.93a.61.61 0 0 1-.48.75"/></clipPath><clipPath id="fi" transform="translate(-4954.33 -3375.49)"><path class="b" d="M5143.25 3606.32l-5.92 1.71a.61.61 0 0 1-.75-.48.69.69 0 0 1 .44-.83l5.92-1.71a.61.61 0 0 1 .75.49.69.69 0 0 1-.44.83"/></clipPath><clipPath id="fk" transform="translate(-4954.33 -3375.49)"><path class="b" d="M5158.51 3600.83a2 2 0 1 1 1.46-2.49 2 2 0 0 1-1.46 2.49m-.69-2.64a.68.68 0 1 0 .83.49.68.68 0 0 0-.83-.49"/></clipPath><clipPath id="fm" transform="translate(-4954.33 -3375.49)"><path class="b" d="M5162.6 3602.87a2 2 0 1 1 1.46-2.49 2 2 0 0 1-1.46 2.49m-.69-2.64a.68.68 0 1 0 .83.49.68.68 0 0 0-.83-.49"/></clipPath><clipPath id="fo" transform="translate(-4954.33 -3375.49)"><path class="b" d="M5155.45 3604.91a2 2 0 1 1 1.46-2.49 2 2 0 0 1-1.46 2.49m-.69-2.64a.68.68 0 1 0 .83.49.68.68 0 0 0-.83-.49"/></clipPath><clipPath id="fq" transform="translate(-4954.33 -3375.49)"><path class="b" d="M5160.56 3607a2 2 0 1 1 1.46-2.49 2 2 0 0 1-1.46 2.49m-.69-2.64a.68.68 0 1 0 .83.49.68.68 0 0 0-.83-.49"/></clipPath><clipPath id="fs" transform="translate(-4954.33 -3375.49)"><path class="b" d="M5151.38 3597.52l-5.15 1.31a.67.67 0 0 1-.81-.46l-.67-2.51a.65.65 0 0 1 .48-.79l5.15-1.31a.67.67 0 0 1 .81.46l.67 2.51a.65.65 0 0 1-.48.79zm-4.84-.11l3.86-1-.33-1.25-3.86 1z"/></clipPath><clipPath id="fu" transform="translate(-4954.33 -3375.49)"><path class="b" d="M5148.36 3592.37l-1.33.34-.17-.65a2.68 2.68 0 0 1 2-3.27l.66-.17.35 1.3-.66.17a1.34 1.34 0 0 0-1 1.64z"/></clipPath><clipPath id="fw" transform="translate(-4954.33 -3375.49)"><path class="b" d="M5158 3588.45l-.66.17-.35-1.3.66-.17a1.34 1.34 0 0 0 1-1.64l-.17-.65 1.33-.34.17.65a2.68 2.68 0 0 1-2 3.27"/></clipPath><clipPath id="fy" transform="translate(-4954.33 -3375.49)"><path class="b" d="M5156.98 3587.72l-7.85 1.92-.32-1.13 7.85-1.93.32 1.14z"/></clipPath><clipPath id="ga" transform="translate(-4954.33 -3375.49)"><path class="b" d="M5148.81 3594.48l-1.22.28-.82-2.79 1.22-.28.82 2.79z"/></clipPath></defs><g class="c"><g class="d"><path class="e" d="M40.25 10.84H601.7v445H40.25z"/></g></g><g class="f"><g class="d"><path class="g" d="M0 72.41h230.74v75.31H0z"/></g></g><g class="h"><g class="d"><path class="g" d="M415.6 153.83h233.75v75.31H415.6z"/></g></g><g class="i"><g class="d"><path class="g" d="M462.89 274.66H601.8v51.14H462.89z"/></g></g><g class="j"><g class="d"><path class="g" d="M37.23 256.54h135.88v54.16H37.23z"/></g></g><g class="k"><g class="d"><path class="l" d="M97.71 340.11h449.51v115.73H97.71z"/></g></g><g class="m"><g class="n"><g class="o"><g class="p"><g class="q"><g class="n"><g class="r"><g class="s"><path class="t" d="M375.972 43.556l44.043-.769.77 44.143-44.043.77z"/></g></g></g></g></g></g><g class="u"><g class="p"><path class="t" d="M390.443 52.263l18.77-.376.376 18.78-18.77.376z"/></g></g></g></g><g class="v"><g class="d"><path class="w" d="M409 195.19h64.65v64.65H409z"/></g></g><g class="x"><g class="d"><path class="y" d="M428.48 204.86h25.7v45.32h-25.7z"/></g></g><g class="z"><g class="d"><path class="y" d="M418.67 214.67h45.32v25.7h-45.32z"/></g></g><g class="aa"><g class="d"><path class="y" d="M422.62 208.8h37.41v37.42h-37.41z"/></g></g><g class="ab"><g class="d"><path class="y" d="M422.62 208.81h37.41v37.42h-37.41z"/></g></g><g class="ac"><g class="d"><path class="y" d="M433.71 219.9h15.23v15.23h-15.23z"/></g></g><g class="ad"><g class="d"><path class="ae" d="M288.44 141.19h47.16v76.42h-47.16z"/></g></g><g class="af"><g class="d"><path class="ag" d="M282.41 96.91h67.24v76.42h-67.24z"/></g></g><g class="ah"><g class="d"><path class="ai" d="M259.31 86.84h94.36v123.73h-94.36z"/></g></g><g class="aj"><g class="d"><path class="ak" d="M301.49 144.21h32.09v18.05h-32.09z"/></g></g><g class="al"><g class="d"><path class="ag" d="M342.58 204.59H452v77.43H342.58z"/></g></g><g class="am"><g class="d"><path class="ag" d="M185 204.59h109.42v77.43H185z"/></g></g><g class="an"><g class="d"><path class="ao" d="M281.41 295.17h94.36v205.25h-94.36z"/></g></g><g class="ap"><g class="d"><path class="ai" d="M299.48 477.34h37.11v58.31h-37.11z"/></g></g><g class="aq"><g class="d"><path class="ai" d="M316.56 437.08h35.11v51.26h-35.11z"/></g></g><g class="ar"><g class="d"><path class="ak" d="M269.36 172.3h99.38v132.78h-99.38z"/></g></g><g class="as"><g class="at"><g class="au"><g class="av"><path class="aw" d="M260.6 545.5h114.49v20.82H260.6z"/></g></g></g></g><g class="ax"><g class="d"><path class="ay" d="M382 94.06h75.78v75.78H382z"/></g></g><g class="az"><g class="d"><path class="ba" d="M401 108.84h37v45h-37z"/></g></g><g class="bb"><g class="d"><path class="ba" d="M398 137.84h35v24h-35z"/></g></g><g class="bc"><g class="d"><path class="ba" d="M417 102.84h27v51h-27z"/></g></g><g class="bd"><g class="d"><path class="ba" d="M413 112.84h15v12h-15z"/></g></g><g class="be"><g class="d"><path class="bf" d="M242 0h85.84v85.93H242z"/></g></g><g class="bg"><g class="d"><path class="bh" d="M256 18.86h58v39.03h-58z"/></g></g><g class="bi"><g class="d"><path class="bh" d="M275 11.86h21v18.01h-21z"/></g></g><g class="bj"><g class="d"><path class="bh" d="M279 45.89h12v26.02h-12z"/></g></g><g class="bk"><g class="d"><path class="bh" d="M267 45.89h24v27.02h-24z"/></g></g><g class="bl"><g class="d"><path class="bh" d="M280 45.89h24v27.02h-24z"/></g></g><g class="bm"><g class="d"><path class="bh" d="M262 27.87h16v12h-16z"/></g></g><g class="bn"><g class="d"><path class="bh" d="M262 38.89h16v12h-16z"/></g></g><g class="bo"><g class="d"><path class="bh" d="M262 32.88h16v12h-16z"/></g></g><g class="bp"><g class="d"><path class="bh" d="M270 30.88h15v12h-15z"/></g></g><g class="bq"><g class="d"><path class="bh" d="M270 34.88h15v12h-15z"/></g></g><g class="br"><g class="d"><path class="bh" d="M261 27.87h12v23.01h-12z"/></g></g><g class="bs"><g class="d"><path class="bh" d="M288 27.87h16v12h-16z"/></g></g><g class="bt"><g class="d"><path class="bh" d="M288 38.89h16v12h-16z"/></g></g><g class="bu"><g class="d"><path class="bh" d="M288 27.87h12v23.01h-12z"/></g></g><g class="bv"><g class="d"><path class="bh" d="M279 27.87h12v23.01h-12z"/></g></g><g class="bw"><g class="d"><path class="bh" d="M284 27.87h12v23.01h-12z"/></g></g><g class="bx"><g class="d"><path class="bh" d="M281 27.87h12v15.01h-12z"/></g></g><g class="by"><g class="d"><path class="bh" d="M279 27.87h17v12h-17z"/></g></g><g class="bz"><g class="d"><path class="bh" d="M295 22.87h15v12h-15z"/></g></g><g class="ca"><g class="d"><path class="bh" d="M298 23.87h12v13h-12z"/></g></g><g class="cb"><g class="d"><path class="bh" d="M295 25.87h15v12h-15z"/></g></g><g class="cc"><g class="d"><path class="bh" d="M295 28.88h15v12h-15z"/></g></g><g class="cd"><g class="d"><path class="bh" d="M295 25.87h12v14h-12z"/></g></g><g class="ce"><g class="d"><path class="cf" d="M172 92.26h71.58v71.5H172z"/></g></g><g class="cg"><g class="d"><path class="ch" d="M208.33 101.63h22.79v22.41h-22.79z"/></g></g><g class="ci"><g class="d"><path class="ch" d="M206.37 107.33h17.37v17.94h-17.37z"/></g></g><g class="cj"><g class="d"><path class="ch" d="M191.53 109.1h29.86v27.08h-29.86z"/></g></g><g class="ck"><g class="d"><path class="ch" d="M189.63 121.77h15.59v15.59h-15.59z"/></g></g><g class="cl"><g class="d"><path class="ch" d="M214.61 104.22h12.06v12.06h-12.06z"/></g></g><g class="cm"><g class="d"><g class="q"><g class="cn"><g class="co"><g class="cn"><path class="ch" d="M213.01 102.51h15.36v15.35h-15.36z"/></g></g></g></g></g></g><g class="cp"><g class="d"><path class="ch" d="M216.72 107.07h12.03v12.03h-12.03z"/></g></g><g class="cq"><g class="d"><g class="q"><g class="cr"><g class="cs"><g class="cr"><path class="ch" d="M215.61 105.37h14.02v15.35h-14.02z"/></g></g></g></g></g></g><g class="ct"><g class="d"><path class="ch" d="M213.67 107.07h12.03v12.03h-12.03z"/></g></g><g class="cu"><g class="d"><g class="q"><g class="cv"><g class="cw"><g class="cv"><path class="ch" d="M211.78 106.02h15.36v14.02h-15.36z"/></g></g></g></g></g></g><g class="cx"><g class="d"><path class="ch" d="M184.37 124.3h17.92v16.51h-17.92z"/></g></g><g class="cy"><g class="d"><path class="ch" d="M182.62 129.48h17.35v18.11h-17.35z"/></g></g><g class="cz"><g class="d"><path class="ch" d="M188.5 134.63h17.34v18.11H188.5z"/></g></g><g class="da"><g class="d"><path class="ch" d="M203.08 131.16h17.34v15.16h-17.34z"/></g></g><g class="db"><g class="d"><path class="ch" d="M208.95 123.75h11.47v20.36h-11.47z"/></g></g><g class="dc"><g class="d"><path class="ch" d="M211.15 133.38h17.34v15.16h-17.34z"/></g></g><g class="dd"><g class="d"><path class="ch" d="M209.07 123.73h19.42v22.6h-19.42z"/></g></g><g class="de"><g class="d"><path class="df" d="M166 195.08h58.76v58.83H166z"/></g></g><g class="dg"><g class="d"><path class="dh" d="M173.15 214.27h43.69v30.45h-43.69z"/></g></g><g class="di"><g class="d"><path class="dh" d="M179.27 222.45h13.06v17.16h-13.06z"/></g></g><g class="dj"><g class="d"><path class="dh" d="M177.23 224.49h17.15v13.07h-17.15z"/></g></g><g class="dk"><g class="d"><path class="dh" d="M196.63 216.31h14.08v14.09h-14.08z"/></g></g><g class="dl"><g class="d"><path class="dh" d="M200.71 218.36h14.08v14.09h-14.08z"/></g></g><g class="dm"><g class="d"><path class="dh" d="M193.56 220.4h14.08v14.09h-14.08z"/></g></g><g class="dn"><g class="d"><path class="dh" d="M198.67 222.45h14.08v14.09h-14.08z"/></g></g><g class="do"><g class="d"><path class="dh" d="M185.4 213.25h17.15v15.11H185.4z"/></g></g><g class="dp"><g class="d"><path class="dh" d="M187.44 208.13h13.06v14.09h-13.06z"/></g></g><g class="dq"><g class="d"><path class="dh" d="M197.65 204.04h13.06v14.09h-13.06z"/></g></g><g class="dr"><g class="d"><path class="dh" d="M189.48 206.09h18.17v13.07h-18.17z"/></g></g><g class="ds"><g class="d"><path class="dh" d="M187.44 211.2h12.04v13.07h-12.04z"/></g></g></svg>