<svg xmlns="http://www.w3.org/2000/svg" xmlns:xlink="http://www.w3.org/1999/xlink" viewBox="0 0 563 442"><defs><style>.a{fill:none;clip-rule:evenodd;}.b{fill:#fff;}.c{clip-path:url(#a);}.d{clip-path:url(#b);}.e{clip-path:url(#c);}.f{clip-path:url(#d);}.g{fill:#144459;}.h{fill:#02b3e4;}.i{fill:#fdd000;}.j{fill:#02ccba;}.k{fill:#ff5483;}.l{opacity:0.7;}.m{opacity:0.25;}.n{opacity:0.5;}.o{fill:#efa37d;}.p{fill:#fdad80;}.q{fill:#585f8a;}.r{fill:#ccc;}.s{opacity:0.09;}.t{opacity:0.05;}.u{opacity:0.16;}</style><clipPath id="a"><path class="a" d="M-98.25-658.44H-322q2.94-13.48,15.5-13.48c12.55,0,26.17.37,33.92-6.62s14.51-22.2,26.44-25,28.11,1.18,36-6.27,17.92-13.94,27.24-13.94,14.88,4.37,18.73,9.15a18.9,18.9,0,0,1,4.21,11.06q-1.9-4.85,8.62,0c10.52,4.85,16.36,8.07,21.44,16.53s-0.49,11.4,6,15.08Q-117.49-668.24-98.25-658.44Z"/></clipPath><clipPath id="b"><path class="a" d="M-668.6-683.86h220.74q-2.9-13.48-15.29-13.48c-12.38,0-25.82.37-33.46-6.62s-14.31-22.2-26.08-25-27.73,1.18-35.53-6.27-17.67-13.94-26.87-13.94-14.68,4.37-18.48,9.15a19.05,19.05,0,0,0-4.15,11.06q1.88-4.85-8.5,0c-10.38,4.85-16.14,8.07-21.15,16.53s0.48,11.4-5.88,15.08Q-649.62-693.66-668.6-683.86Z"/></clipPath><clipPath id="c"><path class="a" d="M-71.3-539.77H-200.21q1.7-8.49,8.93-8.49c7.23,0,15.08.23,19.54-4.17s8.36-14,15.23-15.74,16.19,0.74,20.75-4,10.32-8.78,15.69-8.78,8.57,2.75,10.79,5.77a12.57,12.57,0,0,1,2.42,7q-1.1-3.06,5,0c6.06,3.06,9.43,5.08,12.35,10.41s-0.28,7.18,3.43,9.5Q-82.38-545.95-71.3-539.77Z"/></clipPath><clipPath id="d"><path class="a" d="M-547-553.88H-672.86q1.66-9.12,8.72-9.12c7.06,0,14.72.25,19.08-4.48s8.16-15,14.88-16.89,15.81,0.8,20.26-4.24S-599.84-598-594.6-598s8.37,3,10.54,6.19a14.37,14.37,0,0,1,2.37,7.48q-1.07-3.28,4.85,0c5.92,3.28,9.21,5.46,12.06,11.17s-0.27,7.71,3.35,10.2Q-557.8-560.51-547-553.88Z"/></clipPath><symbol id="e" viewBox="0 0 6 6"><circle class="b" cx="3" cy="3" r="3"/></symbol></defs><title>sdsdsdsd</title><ellipse class="g" cx="281.17" cy="221.13" rx="277.61" ry="216.45"/><use width="6" height="6" transform="translate(149.28 150.08) scale(0.77)" xlink:href="#e"/><use width="6" height="6" transform="translate(151.58 128.36) scale(0.83)" xlink:href="#e"/><use width="6" height="6" transform="translate(174.83 85.38) scale(0.46)" xlink:href="#e"/><use width="6" height="6" transform="translate(185.77 108.85) scale(0.7)" xlink:href="#e"/><use width="6" height="6" transform="translate(104.66 175.34) scale(0.42)" xlink:href="#e"/><use width="6" height="6" transform="translate(83.99 142.02) scale(0.52)" xlink:href="#e"/><use width="6" height="6" transform="translate(148.3 90.56) scale(0.38)" xlink:href="#e"/><use width="6" height="6" transform="translate(199.3 160.96) scale(0.41)" xlink:href="#e"/><use width="6" height="6" transform="translate(95.05 187.08) scale(0.3)" xlink:href="#e"/><use width="6" height="6" transform="translate(191.81 146.94) scale(0.43)" xlink:href="#e"/><use width="6" height="6" transform="translate(194.47 222.36) scale(0.69)" xlink:href="#e"/><use width="6" height="6" transform="translate(112.37 233.87) scale(0.84)" xlink:href="#e"/><use width="6" height="6" transform="translate(175.08 255.6) scale(0.96)" xlink:href="#e"/><use width="6" height="6" transform="translate(145.57 341.23) scale(0.76)" xlink:href="#e"/><use width="6" height="6" transform="translate(134.84 340.84) scale(0.81)" xlink:href="#e"/><use width="6" height="6" transform="translate(84.34 280.77) scale(0.97)" xlink:href="#e"/><use width="6" height="6" transform="translate(99.81 224.8) scale(0.83)" xlink:href="#e"/><use width="6" height="6" transform="translate(100.91 253.53) scale(0.81)" xlink:href="#e"/><use width="6" height="6" transform="translate(38.14 217.71) scale(0.91)" xlink:href="#e"/><use width="6" height="6" transform="translate(156.5 238.93) scale(0.85)" xlink:href="#e"/><use width="6" height="6" transform="translate(243.99 348.01) scale(0.36)" xlink:href="#e"/><use width="6" height="6" transform="translate(299.62 417.79) scale(0.99)" xlink:href="#e"/><use width="6" height="6" transform="translate(278 422)" xlink:href="#e"/><use width="6" height="6" transform="translate(121 398)" xlink:href="#e"/><use width="6" height="6" transform="translate(106 368)" xlink:href="#e"/><use width="6" height="6" transform="translate(336.21 390.49) scale(0.42)" xlink:href="#e"/><use width="6" height="6" transform="translate(239.02 382.36) scale(0.74)" xlink:href="#e"/><use width="6" height="6" transform="translate(241.7 362.79) scale(0.34)" xlink:href="#e"/><use width="6" height="6" transform="translate(356.92 357.87) scale(0.8)" xlink:href="#e"/><use width="6" height="6" transform="translate(269.46 355.02) scale(0.52)" xlink:href="#e"/><use width="6" height="6" transform="translate(362.45 345.08) scale(0.85)" xlink:href="#e"/><use width="6" height="6" transform="translate(403 332.05)" xlink:href="#e"/><use width="6" height="6" transform="translate(420 335.11) scale(0.96)" xlink:href="#e"/><use width="6" height="6" transform="translate(449.21 228.12) scale(1.09)" xlink:href="#e"/><use width="6" height="6" transform="translate(530.66 165.12) scale(0.4)" xlink:href="#e"/><use width="6" height="6" transform="translate(472.98 272.13) scale(0.79)" xlink:href="#e"/><use width="6" height="6" transform="translate(427.77 224.54) scale(0.86)" xlink:href="#e"/><use width="6" height="6" transform="translate(527.13 188.48) scale(0.48)" xlink:href="#e"/><use width="6" height="6" transform="translate(471.96 263.7) scale(0.68)" xlink:href="#e"/><use width="6" height="6" transform="translate(472.48 176.77) scale(0.77)" xlink:href="#e"/><use width="6" height="6" transform="translate(523.96 212.36) scale(0.87)" xlink:href="#e"/><use width="6" height="6" transform="translate(420.96 160.34) scale(0.76)" xlink:href="#e"/><use width="6" height="6" transform="translate(410.28 51.12) scale(0.71)" xlink:href="#e"/><use width="6" height="6" transform="translate(421.37 50.19) scale(0.77)" xlink:href="#e"/><use width="6" height="6" transform="translate(359.63 59.92) scale(0.77)" xlink:href="#e"/><use width="6" height="6" transform="translate(216 72.84) scale(0.64)" xlink:href="#e"/><use width="6" height="6" transform="translate(234.37 41.63) scale(0.8)" xlink:href="#e"/><use width="6" height="6" transform="translate(364.18 72.83) scale(0.78)" xlink:href="#e"/><use width="6" height="6" transform="translate(210.3 79) scale(0.59)" xlink:href="#e"/><use width="6" height="6" transform="translate(170.99 55.21) scale(0.87)" xlink:href="#e"/><use width="6" height="6" transform="translate(252.51 22.48) scale(0.66)" xlink:href="#e"/><use width="6" height="6" transform="translate(214.29 17.38) scale(1.08)" xlink:href="#e"/><use width="6" height="6" transform="translate(76.89 106.18) scale(0.97)" xlink:href="#e"/><use width="6" height="6" transform="translate(80.33 127.49) scale(0.71)" xlink:href="#e"/><use width="6" height="6" transform="translate(297.71 85.64) scale(0.75)" xlink:href="#e"/><use width="6" height="6" transform="translate(425.06 107.44) scale(0.54)" xlink:href="#e"/><use width="6" height="6" transform="translate(406.31 84.37) scale(0.48)" xlink:href="#e"/><use width="6" height="6" transform="translate(333.37 89.36) scale(0.55)" xlink:href="#e"/><use width="6" height="6" transform="translate(416.87 132.63) scale(0.62)" xlink:href="#e"/><use width="6" height="6" transform="translate(84.34 166.21) scale(0.11)" xlink:href="#e"/><use width="6" height="6" transform="translate(72.25 176.99) scale(0.17)" xlink:href="#e"/><use width="6" height="6" transform="translate(68.06 168.31) scale(0.22)" xlink:href="#e"/><use width="6" height="6" transform="translate(85.81 145.43) scale(0.16)" xlink:href="#e"/><use width="6" height="6" transform="translate(63.61 195.24) scale(0.24)" xlink:href="#e"/><use width="6" height="6" transform="translate(52.44 207.3) scale(0.31)" xlink:href="#e"/><use width="6" height="6" transform="translate(95.67 220.76) scale(0.12)" xlink:href="#e"/><use width="6" height="6" transform="translate(113.64 298.04) scale(0.19)" xlink:href="#e"/><use width="6" height="6" transform="translate(110.23 296.79) scale(0.22)" xlink:href="#e"/><use width="6" height="6" transform="translate(87.57 273.93) scale(0.24)" xlink:href="#e"/><use width="6" height="6" transform="translate(72.18 204.84) scale(0.18)" xlink:href="#e"/><use width="6" height="6" transform="translate(128.07 223.62) scale(0.09)" xlink:href="#e"/><use width="6" height="6" transform="translate(144.48 224.75) scale(0.11)" xlink:href="#e"/><use width="6" height="6" transform="translate(159.55 206.77) scale(0.18)" xlink:href="#e"/><use width="6" height="6" transform="translate(155.68 184.69) scale(0.22)" xlink:href="#e"/><use width="6" height="6" transform="translate(190.92 266.88) scale(0.22)" xlink:href="#e"/><use width="6" height="6" transform="translate(118.65 282.12) scale(0.14)" xlink:href="#e"/><use width="6" height="6" transform="translate(115.04 320) scale(0.25)" xlink:href="#e"/><use width="6" height="6" transform="translate(171.39 349.33) scale(0.27)" xlink:href="#e"/><use width="6" height="6" transform="translate(240.57 397.53) scale(0.06)" xlink:href="#e"/><use width="6" height="6" transform="translate(183.46 420.75) scale(0.7)" xlink:href="#e"/><use width="6" height="6" transform="translate(225.57 387.97) scale(0.11)" xlink:href="#e"/><use width="6" height="6" transform="translate(289.74 396.93) scale(0.09)" xlink:href="#e"/><use width="6" height="6" transform="translate(331.6 412.33) scale(0.19)" xlink:href="#e"/><use width="6" height="6" transform="translate(328.68 410.91) scale(0.17)" xlink:href="#e"/><use width="6" height="6" transform="translate(387.78 382.96) scale(0.42)" xlink:href="#e"/><use width="6" height="6" transform="translate(414.06 369.76) scale(0.6)" xlink:href="#e"/><use width="6" height="6" transform="translate(481.85 368.21) scale(0.81)" xlink:href="#e"/><use width="6" height="6" transform="translate(489.25 367.24) scale(0.81)" xlink:href="#e"/><use width="6" height="6" transform="translate(477.5 328.26) scale(0.66)" xlink:href="#e"/><use width="6" height="6" transform="translate(476.77 245.12) scale(0.26)" xlink:href="#e"/><use width="6" height="6" transform="translate(392.1 243.18) scale(0.28)" xlink:href="#e"/><use width="6" height="6" transform="translate(410.91 232.61) scale(0.44)" xlink:href="#e"/><use width="6" height="6" transform="translate(441.55 246.03) scale(0.29)" xlink:href="#e"/><use width="6" height="6" transform="translate(335.75 263.13) scale(0.64)" xlink:href="#e"/><use width="6" height="6" transform="translate(356.15 187.6) scale(0.3)" xlink:href="#e"/><use width="6" height="6" transform="translate(401.11 209.59) scale(0.27)" xlink:href="#e"/><use width="6" height="6" transform="translate(404.96 212.1) scale(0.29)" xlink:href="#e"/><use width="6" height="6" transform="translate(316.92 298.69) scale(0.49)" xlink:href="#e"/><use width="6" height="6" transform="translate(255.69 285.51) scale(0.38)" xlink:href="#e"/><use width="6" height="6" transform="translate(287.46 319.59) scale(0.35)" xlink:href="#e"/><use width="6" height="6" transform="translate(283.17 217.37) scale(0.46)" xlink:href="#e"/><use width="6" height="6" transform="translate(348.78 88.71) scale(0.23)" xlink:href="#e"/><use width="6" height="6" transform="translate(401.91 94.84) scale(0.14)" xlink:href="#e"/><use width="6" height="6" transform="translate(430.04 113.5) scale(0.17)" xlink:href="#e"/><use width="6" height="6" transform="translate(393.56 129.48) scale(0.12)" xlink:href="#e"/><use width="6" height="6" transform="translate(443.98 124.55) scale(0.18)" xlink:href="#e"/><use width="6" height="6" transform="translate(466.38 131.94) scale(0.23)" xlink:href="#e"/><use width="6" height="6" transform="translate(326.17 139.64) scale(0.35)" xlink:href="#e"/><use width="6" height="6" transform="translate(350.91 126.38) scale(0.21)" xlink:href="#e"/><use width="6" height="6" transform="translate(379.23 131.42) scale(0.14)" xlink:href="#e"/><use width="6" height="6" transform="translate(370.25 114.29) scale(0.15)" xlink:href="#e"/><use width="6" height="6" transform="translate(390.46 99.7) scale(0.13)" xlink:href="#e"/><use width="6" height="6" transform="translate(342.73 57.14) scale(0.34)" xlink:href="#e"/><use width="6" height="6" transform="translate(299.93 28.32) scale(0.56)" xlink:href="#e"/><use width="6" height="6" transform="translate(329.77 28.72) scale(0.45)" xlink:href="#e"/><use width="6" height="6" transform="translate(227.1 38.95) scale(0.47)" xlink:href="#e"/><use width="6" height="6" transform="translate(164.45 83.4) scale(0.25)" xlink:href="#e"/><use width="6" height="6" transform="translate(119.3 116.38) scale(0.19)" xlink:href="#e"/><use width="6" height="6" transform="translate(143.83 113.34) scale(0.23)" xlink:href="#e"/><use width="6" height="6" transform="translate(143.33 117.15) scale(0.22)" xlink:href="#e"/><use width="6" height="6" transform="translate(118.32 107.53) scale(0.23)" xlink:href="#e"/><use width="6" height="6" transform="translate(119.51 90.59) scale(0.28)" xlink:href="#e"/><use width="6" height="6" transform="translate(75.22 165.33) scale(0.16)" xlink:href="#e"/><use width="6" height="6" transform="translate(53.12 212.61) scale(0.29)" xlink:href="#e"/><use width="6" height="6" transform="translate(35.83 257.89) scale(0.52)" xlink:href="#e"/><use width="6" height="6" transform="translate(25.44 261.38) scale(0.61)" xlink:href="#e"/><use width="6" height="6" transform="translate(92.28 323.92) scale(0.42)" xlink:href="#e"/><use width="6" height="6" transform="translate(109.55 358.28) scale(0.43)" xlink:href="#e"/><use width="6" height="6" transform="translate(136.46 284.68) scale(0.13)" xlink:href="#e"/><use width="6" height="6" transform="translate(276.3 223.46) scale(0.46)" xlink:href="#e"/><use width="6" height="6" transform="translate(335.64 248.05) scale(0.59)" xlink:href="#e"/><use width="6" height="6" transform="translate(316.14 273.85) scale(0.54)" xlink:href="#e"/><use width="6" height="6" transform="translate(392.89 278.85) scale(0.39)" xlink:href="#e"/><use width="6" height="6" transform="translate(510.16 282.29) scale(0.51)" xlink:href="#e"/><use width="6" height="6" transform="translate(524.48 297.72) scale(0.65)" xlink:href="#e"/><use width="6" height="6" transform="translate(414.08 351.24) scale(0.63)" xlink:href="#e"/><use width="6" height="6" transform="translate(456.99 302.22) scale(0.43)" xlink:href="#e"/><use width="6" height="6" transform="translate(515.58 260.99) scale(0.43)" xlink:href="#e"/><use width="6" height="6" transform="translate(486.07 148.71) scale(0.24)" xlink:href="#e"/><use width="6" height="6" transform="translate(495.83 130.51) scale(0.36)" xlink:href="#e"/><use width="6" height="6" transform="translate(492.84 126.84) scale(0.37)" xlink:href="#e"/><use width="6" height="6" transform="translate(363.89 95.81) scale(0.17)" xlink:href="#e"/><use width="6" height="6" transform="translate(270.54 108.73) scale(0.62)" xlink:href="#e"/><use width="6" height="6" transform="translate(210.18 201.72) scale(0.41)" xlink:href="#e"/><use width="6" height="6" transform="translate(177.22 193.89) scale(0.29)" xlink:href="#e"/><use width="6" height="6" transform="translate(173.52 165.58) scale(0.3)" xlink:href="#e"/><use width="6" height="6" transform="translate(211.12 237.1) scale(0.33)" xlink:href="#e"/><use width="6" height="6" transform="translate(242.86 258.31) scale(0.36)" xlink:href="#e"/><use width="6" height="6" transform="translate(242.49 263.45) scale(0.36)" xlink:href="#e"/><use width="6" height="6" transform="translate(184.84 227.49) scale(0.22)" xlink:href="#e"/><use width="6" height="6" transform="translate(238.08 152.69) scale(0.66)" xlink:href="#e"/><use width="6" height="6" transform="translate(289.09 188.53) scale(0.52)" xlink:href="#e"/><use width="6" height="6" transform="translate(318.46 340.95) scale(0.3)" xlink:href="#e"/><use width="6" height="6" transform="translate(358.54 385.98) scale(0.25)" xlink:href="#e"/><use width="6" height="6" transform="translate(268.77 403.24) scale(0.06)" xlink:href="#e"/><use width="6" height="6" transform="translate(203.6 360.46) scale(0.32)" xlink:href="#e"/><use width="6" height="6" transform="translate(343.73 344.22) scale(0.36)" xlink:href="#e"/><use width="6" height="6" transform="translate(391.78 323.14) scale(0.4)" xlink:href="#e"/><use width="6" height="6" transform="translate(406.91 290.48) scale(0.26)" xlink:href="#e"/><use width="6" height="6" transform="translate(455.58 279.03) scale(0.37)" xlink:href="#e"/><use width="6" height="6" transform="translate(299.26 256.24) scale(0.53)" xlink:href="#e"/><use width="6" height="6" transform="translate(368.28 216.02) scale(0.53)" xlink:href="#e"/><use width="6" height="6" transform="translate(420.63 255.35) scale(0.3)" xlink:href="#e"/><use width="6" height="6" transform="translate(426.54 243.17) scale(0.28)" xlink:href="#e"/><use width="6" height="6" transform="translate(428.63 131.46) scale(0.15)" xlink:href="#e"/><use width="6" height="6" transform="translate(416.07 64.06) scale(0.26)" xlink:href="#e"/><use width="6" height="6" transform="translate(369.53 56.62) scale(0.26)" xlink:href="#e"/><use width="6" height="6" transform="translate(331.46 50.62) scale(0.4)" xlink:href="#e"/><use width="6" height="6" transform="translate(339.69 48.05) scale(0.44)" xlink:href="#e"/><use width="6" height="6" transform="translate(270.38 87.19) scale(0.6)" xlink:href="#e"/><use width="6" height="6" transform="translate(190.11 100) scale(0.32)" xlink:href="#e"/><use width="6" height="6" transform="translate(177.29 58.14) scale(0.28)" xlink:href="#e"/><use width="6" height="6" transform="translate(136.47 78.38) scale(0.27)" xlink:href="#e"/><use width="6" height="6" transform="translate(106.24 95.83) scale(0.29)" xlink:href="#e"/><use width="6" height="6" transform="translate(157.53 114.91) scale(0.25)" xlink:href="#e"/><use width="6" height="6" transform="translate(204.54 135.87) scale(0.47)" xlink:href="#e"/><use width="6" height="6" transform="translate(250.94 156.06) scale(0.66)" xlink:href="#e"/><use width="6" height="6" transform="translate(189.19 234.4) scale(0.23)" xlink:href="#e"/><use width="6" height="6" transform="translate(298.12 226.62) scale(0.48)" xlink:href="#e"/><use width="6" height="6" transform="translate(337.56 232.38) scale(0.57)" xlink:href="#e"/><use width="6" height="6" transform="translate(359.67 252.23) scale(0.59)" xlink:href="#e"/><use width="6" height="6" transform="translate(296.04 328.19) scale(0.33)" xlink:href="#e"/><use width="6" height="6" transform="translate(368.39 268.44) scale(0.65)" xlink:href="#e"/><use width="6" height="6" transform="translate(383.45 288.51) scale(0.29)" xlink:href="#e"/><use width="6" height="6" transform="translate(422.14 267.51) scale(0.24)" xlink:href="#e"/><use width="6" height="6" transform="translate(378.4 310.24) scale(0.27)" xlink:href="#e"/><circle class="h" cx="87.32" cy="225.68" r="3.75"/><circle class="i" cx="385.73" cy="349.93" r="3.75"/><circle class="j" cx="385.73" cy="79.93" r="3.75"/><circle class="k" cx="197.73" cy="181.93" r="2.5"/><circle class="k" cx="410.73" cy="118.93" r="2.5"/><circle class="i" cx="94.73" cy="128.93" r="3.75"/><circle class="h" cx="443.32" cy="294.68" r="2.5"/><circle class="h" cx="276.73" cy="382.93" r="2.5"/><circle class="h" cx="352.32" cy="117.68" r="3.75"/><g class="l"><rect class="b" x="113.54" y="133.81" width="115.66" height="62.67" rx="10.36" ry="10.36"/><circle class="h" cx="137.72" cy="165.33" r="15.28"/><rect class="h" x="165.96" y="153.53" width="54.35" height="1.93"/><rect class="h" x="165.96" y="164.95" width="54.35" height="1.93"/><rect class="h" x="165.96" y="176.36" width="43.9" height="1.93"/></g><g class="m"><rect class="b" x="332.92" y="239.1" width="90.33" height="48.94" rx="10.36" ry="10.36"/><circle class="j" cx="351.8" cy="263.72" r="11.93"/><rect class="j" x="373.86" y="254.51" width="42.45" height="1.51"/><rect class="j" x="373.86" y="263.42" width="42.45" height="1.51"/><rect class="j" x="373.86" y="272.33" width="34.29" height="1.51"/></g><g class="n"><rect class="b" x="132.91" y="255.11" width="107.66" height="58.33" rx="10.36" ry="10.36"/><circle class="j" cx="155.42" cy="284.46" r="14.22"/><rect class="j" x="181.7" y="273.48" width="50.59" height="1.8"/><rect class="j" x="181.7" y="284.1" width="50.59" height="1.8"/><rect class="j" x="181.7" y="294.72" width="40.87" height="1.8"/></g><path class="o" d="M297.49,84.36l-29,.78,17.91,50.27,9.82-27.82S296.18,86.45,297.49,84.36Z"/><ellipse class="p" cx="285.96" cy="75.74" rx="22.36" ry="25.92"/><path class="q" d="M296,108.77c-0.44-6.39-1-11.32,3.84-17.05,3.23-3.85,4.51-9.53,6-14.6,1.31-4.59-.19-8.15-4.46-11.43-4.45-3.42-7.59-8.55-10.85-12.39-6.59,5.19-13.44,10.51-20.17,16-1.08.88-2.31,2.41-2.32,3.64,0,8,1.82,15.56,7.95,21.31,7.08,6.65,5.21,12.25,2.69,21.82-3.4,9.26,14,17.79,5.46,16.79-10.55-1.24-19.62-.11-16.68-10.39,0.84-2.94-1.69-7.84.27-10.12-3.28-11.21-11.5-26.76-10.66-36.64,0.61-7.17,4.4-15.33,7.77-21.52,8.87-16.24,31-16.22,41-.64C316.37,70.13,311.26,97.55,296,108.77Z"/><path class="b" d="M278.41,86.14c0,3.55,4,6.43,8.86,6.43s8.86-2.88,8.86-6.43"/><path class="b" d="M250.5,224.36l0.49,65.3,3.46,57.88,8.91,3.46,12.37-4,0.49-54.91,4.45-51.45s5.44-7.92,6.43.49,4.95,55.41,4.95,55.41l0.49,64.81,7.92,4.95,12.37-5.44,4.95-62.83-1.48-72.73-29.68,5.44-10.88.49Z"/><path class="b" d="M251.24,227.57V153.36s-11.75-4.7-20.65,52.19l-0.31,2.54s-6.4,6.12-12.34,1.67-5.89-4.45-5.89-4.45l8.74-55.19L254,117.37a16.72,16.72,0,0,1,11.75-4.82h36.48a14.39,14.39,0,0,1,9.54,3.61L351.06,151l9.09,53.8s-2.6,6.22-6.49,6.77-11-.21-11.38-1.5-10.48-45-14.19-49.49S320.63,150.4,319,150.4l-2.78,77S287.61,238.15,251.24,227.57Z"/><path class="r" d="M255,344.9v27a9.6,9.6,0,0,0,10,8.45c9.15,0,11-7.09,11-8.73V344.08S267,354.17,255,344.9Z"/><path class="r" d="M291,360v27a10.33,10.33,0,0,0,10.51,8.45c9.15,0,11.49-7.09,11.49-8.73V359.13S302,369.22,291,360Z"/><path class="r" d="M359.62,202.21l8,19.86s-0.93,4.38-1.93,5.27-3.33,4.34-7.24,3.51-7.18-1.12-7.65-3.42-1.81-7.86-1.81-7.86-5.79-.19-6-2.9-1.41-11-1.41-11Z"/><path class="r" d="M211.8,205.31l-5.33,20.78s1.58,4.21,2.74,4.95,4,3.83,7.92,2.47,7.2-2.1,7.35-4.45,0.72-8,.72-8,5.91-1,5.76-3.71-0.14-11.13-.14-11.13Z"/><rect class="r" x="249.26" y="207.78" width="68.52" height="4.21"/><rect class="r" x="248.2" y="287.97" width="29.2" height="4.21"/><rect class="r" x="290.51" y="292.76" width="29.2" height="4.21" transform="matrix(1, 0.07, -0.07, 1, 20.38, -19.73)"/><rect class="r" x="219.54" y="154.21" width="25.44" height="4.21" transform="translate(60.05 -64.42) rotate(18.1)"/><rect class="r" x="326.78" y="154.96" width="25.44" height="4.21" transform="translate(-30.92 104.96) rotate(-16.82)"/><rect class="r" x="249.26" y="222.13" width="68.52" height="4.21"/><rect class="r" x="252.9" y="344.76" width="24.16" height="4.21"/><rect class="r" x="290.5" y="359.6" width="24.16" height="4.21"/><polyline class="r" points="261 115 261 107 309 107 309 115"/><rect class="r" x="259.96" y="128.06" width="48.25" height="39.46"/><rect class="b" x="264.38" y="132.51" width="8.65" height="8.65"/><rect class="b" x="264.38" y="142.98" width="8.65" height="8.65"/><rect class="b" x="264.38" y="153.44" width="8.65" height="8.65"/><rect class="b" x="275.82" y="132.51" width="8.65" height="8.65"/><rect class="b" x="275.82" y="142.98" width="8.65" height="8.65"/><rect class="b" x="275.82" y="153.44" width="8.65" height="8.65"/><rect class="b" x="287.13" y="132.51" width="16.37" height="23.9"/><rect class="b" x="287.13" y="142.98" width="16.37" height="8.65"/><rect class="b" x="287.13" y="153.44" width="16.37" height="8.65"/><g class="s"><circle class="b" cx="285.13" cy="74.26" r="41.56"/></g><g class="t"><path class="b" d="M292.18,33.88c-5.6-.7-11.36-1.43-16.34,0,18.33,3.16,38.67,14.8,41.62,33.7,1.45,10.53,2.67,20.9.68,31.34,7-7.6,8.86-17.85,8-29.2A39.16,39.16,0,0,0,292.18,33.88Z"/></g><rect class="b" x="335.09" y="88.75" width="130.62" height="70.77" rx="10.36" ry="10.36"/><circle class="i" cx="362.4" cy="124.36" r="17.26"/><rect class="i" x="394.29" y="111.03" width="61.38" height="2.18"/><rect class="i" x="394.29" y="123.92" width="61.38" height="2.18"/><rect class="i" x="394.29" y="136.81" width="49.58" height="2.18"/><path class="b" d="M359.31,128.06l10-10,1.28,1.32-11.29,11.29-5.25-5.25,1.32-1.32Z"/><g class="u"><circle class="b" cx="260" cy="55" r="6"/></g><g class="u"><circle class="b" cx="256" cy="64.5" r="2.83"/></g></svg>