<svg xmlns="http://www.w3.org/2000/svg" viewBox="0 0 135.46 29.3"><defs><style>.a{fill:#8dc63f;}.b{fill:#333;}.c{fill:#fff;}</style></defs><title>17Asset 111212121</title><path class="a" d="M7.1,14.6H6.6a.32.32,0,0,1-.3-.3h0V12.4a.32.32,0,0,1,.3-.3h.5v2.5Z"/><path class="a" d="M8.5,14.9H7.7a.32.32,0,0,1-.3-.3h0V12.2a.32.32,0,0,1,.3-.3h.8v3Z"/><path class="a" d="M22.2,14.6h.5a.32.32,0,0,0,.3-.3h0V12.4a.32.32,0,0,0-.3-.3h-.5v2.5Z"/><path class="a" d="M20.9,14.9h.8a.32.32,0,0,0,.3-.3h0V12.2a.32.32,0,0,0-.3-.3h-.8Z"/><rect class="a" x="12.7" y="20.5" width="4" height="2.1"/><rect class="a" x="14.4" y="4.3" width="0.5" height="3"/><rect class="a" x="9.1" y="11.7" width="11.2" height="8.5"/><ellipse class="a" cx="14.7" cy="11.9" rx="5.6" ry="5.1"/><circle class="b" cx="11.6" cy="13.2" r="1.3"/><circle class="b" cx="17.8" cy="13.2" r="1.3"/><circle class="a" cx="14.7" cy="3.6" r="1.2"/><path class="c" d="M14.7,18.7a8.66,8.66,0,0,1-3.2-.6,1.07,1.07,0,0,1-.6-1.4,1.16,1.16,0,0,1,1.4-.6h0a6.36,6.36,0,0,0,4.7,0,1.08,1.08,0,0,1,.8,2A8.15,8.15,0,0,1,14.7,18.7Z"/><path class="a" d="M12.2,15.1v4.3l-.2-.1-.2-.1V15.1h.4Zm1.5,0h-.2v4.1l.2.1.3.1V15.1Zm1.8,0h-.1v4.1l.2.1.3.1V15.1Zm1.7,0H17v4.1l.2.1.3.1V15.1Z"/><path class="a" d="M23.8,22.8H5.5a.32.32,0,0,0-.3.3h0v2.5a14.53,14.53,0,0,0,18.8,0V23.1C24,22.9,23.9,22.9,23.8,22.8Z"/><circle class="c" cx="17.7" cy="24.4" r="0.6"/><circle class="c" cx="19.7" cy="24.4" r="0.6"/><circle class="b" cx="21.6" cy="24.4" r="0.6"/><path class="a" d="M14.7,29.3A14.65,14.65,0,1,1,29.3,14.7h0A14.55,14.55,0,0,1,14.7,29.3Zm0-27.8A13.2,13.2,0,1,0,27.9,14.7h0A13.32,13.32,0,0,0,14.7,1.5Z"/><path class="a" d="M91.46,23.7h-4.9V16a2.1,2.1,0,0,0-.5-1.5,1.59,1.59,0,0,0-1-.5,1.61,1.61,0,0,0-1.3.6,3.32,3.32,0,0,0-1,1.4v7.7h-5V10.1h4.5v2a5.51,5.51,0,0,1,2-1.7,8.15,8.15,0,0,1,3.1-.6,4.19,4.19,0,0,1,2.2.5,3,3,0,0,1,1.2,1.3,4.42,4.42,0,0,1,.6,1.6,8.08,8.08,0,0,1,.1,1.6v8.9Z"/><path class="a" d="M100.56,23.9a8.66,8.66,0,0,1-3.2-.6,5.94,5.94,0,0,1-2.3-1.4,6.36,6.36,0,0,1-1.4-2.2,7.51,7.51,0,0,1-.5-2.6,8.68,8.68,0,0,1,.5-2.8,6.78,6.78,0,0,1,1.4-2.3,8.68,8.68,0,0,1,2.3-1.6,9.1,9.1,0,0,1,6.5,0,6.13,6.13,0,0,1,2.3,1.5,5.94,5.94,0,0,1,1.4,2.3,8.57,8.57,0,0,1,.5,2.7v.8c0,.3-.1.5-.1.7h-9.6a2.09,2.09,0,0,0,.8,1.6,3,3,0,0,0,1.6.5,2.82,2.82,0,0,0,1.5-.4,2.41,2.41,0,0,0,1-1l4.2,1.2a7.46,7.46,0,0,1-2.6,2.7A8,8,0,0,1,100.56,23.9Zm2.2-8.5a3.29,3.29,0,0,0-.7-1.6,2.3,2.3,0,0,0-3.1,0,2.36,2.36,0,0,0-.7,1.6Z"/><path class="a" d="M119,14.3a10.9,10.9,0,0,0-2.6.3,2.7,2.7,0,0,0-1.7,1v8.1h-4.9V10.1h4.5v2.6a5.2,5.2,0,0,1,1.8-2.1,3.89,3.89,0,0,1,2.3-.7h.6v4.4Z"/><path class="a" d="M126.06,23.9a7.51,7.51,0,0,1-2.6-.5,4.81,4.81,0,0,1-2-1.5,6.54,6.54,0,0,1-1.3-2.3,9.29,9.29,0,0,1-.5-2.9,8.63,8.63,0,0,1,.4-2.8,7.76,7.76,0,0,1,1.2-2.2,7,7,0,0,1,1.9-1.5,5.19,5.19,0,0,1,2.4-.5,5,5,0,0,1,2.4.6,4.62,4.62,0,0,1,1.7,1.7V4.7h4.9V18.2a1.8,1.8,0,0,0,.2,1,1.08,1.08,0,0,0,.7.3v4.2a15.17,15.17,0,0,1-2.1.3c-1.7,0-2.7-.6-2.9-1.9l-.1-.5a4.14,4.14,0,0,1-1.9,1.8A3.73,3.73,0,0,1,126.06,23.9Zm1.4-4.1a2.74,2.74,0,0,0,2.3-1.4V16a3.27,3.27,0,0,0-1.1-1.5,2,2,0,0,0-1.5-.6,3.55,3.55,0,0,0-1,.2,5.55,5.55,0,0,0-.8.6,3.32,3.32,0,0,0-.7,2.1,3.14,3.14,0,0,0,.7,2.1,2.38,2.38,0,0,0,2.1.9Z"/><path d="M36.58,29.28a6,6,0,0,1-2.08-.36,5.83,5.83,0,0,1-1.79-1l2-3.36a1.58,1.58,0,0,0,1.23.53c.69,0,1-.38,1-1.12V10.17h4.94V23.54a6.6,6.6,0,0,1-.39,2.32,5.24,5.24,0,0,1-1.11,1.82,5,5,0,0,1-1.7,1.19A5.65,5.65,0,0,1,36.58,29.28ZM37,9V4.87h4.94V9Z"/><path d="M51.23,24.11A8.33,8.33,0,0,1,48,23.52,7,7,0,0,1,45.65,22a6.44,6.44,0,0,1-1.43-2.26,7.78,7.78,0,0,1,0-5.38,6.44,6.44,0,0,1,1.43-2.26A7,7,0,0,1,48,10.5a9.14,9.14,0,0,1,6.46,0,6.9,6.9,0,0,1,2.35,1.56,6.47,6.47,0,0,1,1.44,2.26,7.78,7.78,0,0,1,0,5.38A6.47,6.47,0,0,1,56.8,22a6.9,6.9,0,0,1-2.35,1.56A8.29,8.29,0,0,1,51.23,24.11ZM48.81,17a3.2,3.2,0,0,0,.68,2.16,2.33,2.33,0,0,0,3.48,0A3.2,3.2,0,0,0,53.65,17,3.2,3.2,0,0,0,53,14.85a2.33,2.33,0,0,0-3.48,0A3.2,3.2,0,0,0,48.81,17Z"/><path d="M69.22,24.11a4.65,4.65,0,0,1-4.42-2.39v2.13H60.51v-19h4.94V12.2a4.07,4.07,0,0,1,1.69-1.7,5.36,5.36,0,0,1,2.57-.59,5.16,5.16,0,0,1,2.33.55A5.7,5.7,0,0,1,73.9,12a7.25,7.25,0,0,1,1.22,2.27,9,9,0,0,1,.44,2.84,8,8,0,0,1-.48,2.82,6.82,6.82,0,0,1-1.33,2.23,6,6,0,0,1-4.53,2ZM67.79,20a2.58,2.58,0,0,0,2-.78,2.91,2.91,0,0,0,.74-2.08,3.42,3.42,0,0,0-.19-1.17,3.53,3.53,0,0,0-.52-1,2.3,2.3,0,0,0-.78-.65,2.14,2.14,0,0,0-1-.24,2.36,2.36,0,0,0-1.49.56,3.55,3.55,0,0,0-1.06,1.47v2.45A2.8,2.8,0,0,0,67.79,20Z"/></svg>